<?xml version="1.0" encoding="UTF-8" standalone="no"?>
<!-- Created with Inkscape (http://www.inkscape.org/) -->

<svg
   xmlns:dc="http://purl.org/dc/elements/1.1/"
   xmlns:cc="http://creativecommons.org/ns#"
   xmlns:rdf="http://www.w3.org/1999/02/22-rdf-syntax-ns#"
   xmlns:svg="http://www.w3.org/2000/svg"
   xmlns="http://www.w3.org/2000/svg"
   xmlns:sodipodi="http://sodipodi.sourceforge.net/DTD/sodipodi-0.dtd"
   xmlns:inkscape="http://www.inkscape.org/namespaces/inkscape"
   width="558.85748"
   height="211.38"
   id="svg3529"
   version="1.1"
   inkscape:version="0.48.5 r10040"
   sodipodi:docname="New document 3">
  <defs
     id="defs3531">
    <linearGradient
       x1="0"
       y1="0"
       x2="1"
       y2="0"
       gradientUnits="userSpaceOnUse"
       gradientTransform="matrix(35.383789,0,0,-35.383789,262.04004,955.25195)"
       spreadMethod="pad"
       id="linearGradient200">
      <stop
         style="stop-opacity:1;stop-color:#56ba67"
         offset="0"
         id="stop202" />
      <stop
         style="stop-opacity:1;stop-color:#ffd633"
         offset="1"
         id="stop204" />
    </linearGradient>
    <linearGradient
       x1="0"
       y1="0"
       x2="1"
       y2="0"
       gradientUnits="userSpaceOnUse"
       gradientTransform="matrix(51.93457,0,0,-51.93457,245.69678,1014.1338)"
       spreadMethod="pad"
       id="linearGradient180">
      <stop
         style="stop-opacity:1;stop-color:#56ba67"
         offset="0"
         id="stop182" />
      <stop
         style="stop-opacity:1;stop-color:#ffd633"
         offset="1"
         id="stop184" />
    </linearGradient>
    <linearGradient
       x1="0"
       y1="0"
       x2="1"
       y2="0"
       gradientUnits="userSpaceOnUse"
       gradientTransform="matrix(-38.308624,0,0,38.308639,311.10547,1002.6782)"
       spreadMethod="pad"
       id="linearGradient160">
      <stop
         style="stop-opacity:1;stop-color:#ffd633"
         offset="0"
         id="stop162" />
      <stop
         style="stop-opacity:1;stop-color:#f05737"
         offset="1"
         id="stop164" />
    </linearGradient>
    <clipPath
       clipPathUnits="userSpaceOnUse"
       id="clipPath48">
      <path
         inkscape:connector-curvature="0"
         d="m 0,1224 792,0 L 792,0 0,0 0,1224 z"
         id="path50" />
    </clipPath>
    <clipPath
       clipPathUnits="userSpaceOnUse"
       id="clipPath28">
      <path
         inkscape:connector-curvature="0"
         d="m 203.037,1000.218 c 0,-2.115 1.174,-2.58 1.407,-2.58 l 0,0 c 7.752,7.042 18.083,16.198 39.215,16.198 l 0,0 c 5.693,0 10.541,-0.346 14.631,-0.958 l 0,0 c -0.364,0.48 -0.814,0.882 -1.363,1.154 l 0,0 c 1.551,1.379 2.882,4.412 0.568,6.678 l 0,0 c 2.794,0.907 3.621,4.218 2.681,5.664 l 0,0 c 2.631,0.45 4.456,2.334 4.051,4.847 l 0,0 c 0.937,-0.012 1.621,0.292 2.123,0.744 l 0,0 c -2.24,0.289 -4.486,0.532 -6.735,0.718 l 0,0 c -3.237,-1.508 -6.476,-3.709 -8.618,-5.345 l 0,0 c -0.423,-0.29 -0.508,-1.105 -0.828,-1.641 l 0,0 c -0.139,-0.229 -0.674,-0.449 -0.935,-0.35 l 0,0 c -1.656,0.625 -3.397,2.727 -3.535,3.097 l 0,0 c -0.058,0.157 1.04,1.256 1.297,1.106 l 0,0 c 0.24,-0.138 0.672,-0.349 0.92,-0.323 l 0,0 c 0.768,0.089 2.585,1.338 3.777,2.371 l 0,0 c 0.626,0.541 0.773,1.058 0.735,1.469 l 0,0 c -0.733,0.015 -1.464,0.027 -2.195,0.027 l 0,0 c -29.116,0 -47.196,-25.36 -47.196,-32.876 m 118.582,22.073 c -5.747,0 -12.838,1.286 -20.754,2.967 l 0,0 c -1.562,-1.507 -7.835,-0.167 -7.317,-2.097 l 0,0 c -3.1,0.417 -2.562,0.054 -3.276,-2.643 l 0,0 c -0.396,0.216 -0.714,-0.276 -0.933,-0.769 l 0,0 c -0.254,-0.573 -0.376,-1.145 -0.334,-0.604 l 0,0 c -1.526,-1.663 -1.586,-9.502 -4.997,-14.713 l 0,0 c 1.586,-1.326 3.329,-2.739 5.022,-4.24 l 0,0 c 0.263,6.114 1.631,8.011 3.94,8.011 l 0,0 c 3.053,0 12.446,-5.635 26.298,-5.635 l 0,0 c 22.779,0 34.99,13.851 34.99,21.133 l 0,0 c 0,1.879 -1.174,2.817 -3.757,2.817 l 0,0 c -5.635,0 -11.038,-4.227 -28.882,-4.227 m 95.098,-1.165 -21.238,-28.444 c -0.37,-0.371 -0.555,-0.735 -0.555,-1.291 l 0,0 c 0,-1.108 0.737,-1.847 1.847,-1.847 l 0,0 5.726,0 c 1.109,0 1.845,-0.741 1.845,-1.849 l 0,0 0,-56.515 c 0,-5.723 -2.954,-7.57 -4.248,-8.309 l 0,0 -1.66,-1.108 c -0.738,-0.552 -1.109,-1.292 -1.109,-2.212 l 0,0 c 0,-1.11 0.551,-2.033 1.478,-2.404 l 0,0 13.851,-6.647 c 0.738,-0.371 1.106,-0.74 2.032,-0.74 l 0,0 c 0.74,0 1.476,0.369 2.031,0.74 l 0,0 19.761,16.99 c 1.109,0.922 1.847,1.846 1.109,2.77 l 0,0 -0.444,0.551 c 0.691,0.3 1.038,0.605 1.038,0.91 l 0,0 c -0.104,0.722 -0.233,1.25 -0.392,1.603 l 0,0 0.996,-0.252 0,0.754 -0.301,0 -0.303,-0.3 -0.299,1.202 -0.3,0 c 0,-0.6 -0.303,-0.902 -0.906,-0.902 l 0,0 0,0.902 0.302,0.3 -0.302,0 -0.295,0.305 -0.303,0 -0.298,-1.507 1.499,-0.377 0,0.377 c 0.194,0 0.364,-0.174 0.51,-0.502 l 0,0 -0.51,0.125 0,-0.523 0.303,-0.303 0,-0.299 -0.604,0 c 0,0.801 -0.302,1.201 -0.9,1.201 l 0,0 0,-0.599 0.116,-0.93 -0.085,0.111 c -1.109,1.291 -2.584,-0.184 -3.696,-0.927 l 0,0 -4.06,-3.137 c -0.74,-0.553 -1.292,-0.74 -1.664,-0.74 l 0,0 c -0.552,0 -1.292,0.187 -2.215,0.74 l 0,0 -6.282,3.327 c -1.475,0.737 -1.106,2.583 -0.551,4.982 l 0,0 9.234,44.88 c 0.555,2.401 1.663,4.065 2.216,4.988 l 0,0 c 0.554,0.921 1.106,1.661 2.218,2.402 l 0,0 c 0.921,0.551 2.216,1.474 3.691,2.399 l 0,0 c 1.292,0.926 2.956,1.29 4.615,1.29 l 0,0 c 2.405,0 3.512,1.295 3.512,3.697 l 0,0 c 0,1.107 -0.738,0.921 -3.693,0.921 l 0,0 -9.42,0 c -4.983,0 -9.048,4.065 -9.048,9.238 l 0,0 0,13.481 c 0,1.292 -1.109,2.4 -2.401,2.4 l 0,0 c -0.741,0 -1.479,-0.367 -1.848,-0.922 m 35.172,-23.58 c 0,-1.436 0.793,-1.755 0.955,-1.755 l 0,0 c 5.262,4.787 12.279,11.001 26.628,11.001 l 0,0 c 18.018,0 23.6,-5.099 22.485,-9.727 l 0,0 -11.002,-46.879 c -1.434,-5.893 -0.322,-6.855 2.709,-5.739 l 0,0 c 3.352,1.274 14.033,5.418 15.153,5.418 l 0,0 c 1.113,0 1.27,2.715 1.27,3.828 l 0,0 0.161,42.26 c 0,5.417 0.955,7.016 2.713,7.016 l 0,0 c 2.07,0 8.451,-3.83 17.855,-3.83 l 0,0 c 15.468,0 23.761,9.411 23.761,14.351 l 0,0 c 0,1.276 -0.799,1.915 -2.548,1.915 l 0,0 c -3.833,0 -7.496,-2.874 -19.615,-2.874 l 0,0 c -11.326,0 -30.298,7.337 -48.475,7.337 l 0,0 c -19.772,0 -32.05,-17.219 -32.05,-22.322 m -81.254,13.98 c -6.142,0 -9.909,-1.19 -11.293,-3.567 l 0,0 c 0.592,0 0.888,-0.199 0.888,-0.595 l 0,0 0.598,0.595 0.295,-0.296 c 3.273,1.188 6.243,1.782 8.919,1.782 l 0,0 c 2.579,0 4.858,-0.296 6.837,-0.891 l 0,0 c 6.937,-2.081 10.407,-6.045 10.407,-11.89 l 0,0 c 0,-1.986 -0.497,-3.568 -1.489,-4.76 l 0,0 c -2.083,-1.782 -4.26,-2.674 -6.539,-2.674 l 0,0 c -5.252,0 -9.216,1.883 -11.892,5.648 l 0,0 c -4.113,-5.153 -6.687,-7.728 -7.729,-7.728 l 0,0 c -7.927,-6.692 -11.889,-10.359 -11.889,-10.999 l 0,0 c -2.777,-2.38 -4.162,-5.153 -4.162,-8.327 l 0,0 0,-2.379 c 1.832,-4.706 3.813,-7.38 5.944,-8.027 l 0,0 0,-0.294 -0.296,-0.296 1.781,-0.598 -0.296,-0.296 2.38,-2.082 c 0,-1.089 -0.598,-2.676 -1.788,-4.753 l 0,0 0.299,0 0,-0.594 -0.299,0 0,0.594 -0.296,0 c -0.145,-0.996 -0.446,-1.49 -0.89,-1.49 l 0,0 0,-0.297 0.296,-0.294 c -0.545,0 -1.042,-0.594 -1.488,-1.788 l 0,0 0.597,-0.889 c 0,-0.796 -0.396,-1.29 -1.19,-1.486 l 0,0 -0.891,0.594 0.299,-0.894 -2.676,-2.675 0.594,0 0,-0.593 5.645,-0.297 0.894,0 c 0,0.495 0.394,0.792 1.187,0.89 l 0,0 0.299,-0.89 c 3.073,0 8.127,-1.688 15.161,-5.055 l 0,0 0.299,0.893 1.187,-0.299 0.297,0 0.3,0.299 0,-0.893 -1.488,-0.298 0,-0.297 c 1.387,-0.393 2.081,-0.792 2.081,-1.189 l 0,0 4.459,5.054 c 11.495,10.998 17.243,17.147 17.243,18.434 l 0,0 -0.296,0 -0.296,0.295 0,0.296 c 1.189,0.147 1.781,1.536 1.781,4.162 l 0,0 -0.296,0.299 0.593,0 c 0,2.977 -0.693,5.648 -2.078,8.027 l 0,0 c -3.373,4.359 -6.542,6.539 -9.516,6.539 l 0,0 -0.298,0 1.19,2.381 c 5.151,3.417 7.73,7.678 7.73,12.782 l 0,0 0,1.783 -0.593,0 0,0.893 0.295,0 c 0,4.506 -1.091,8.272 -3.271,11.293 l 0,0 c -3.47,3.419 -8.026,5.699 -13.674,6.841 l 0,0 -0.298,0 -0.297,-0.299 c 0,0.347 -0.693,0.546 -2.08,0.595 l 0,0 -1.191,0 z m -8.322,-44.596 0.296,0.303 c -4.359,2.475 -6.539,5.844 -6.539,10.105 l 0,0 c 0.247,1.931 0.842,3.814 1.782,5.65 l 0,0 c 6.096,-5.549 11.841,-8.326 17.244,-8.326 l 0,0 4.162,0.595 c 0,0.398 -0.298,0.6 -0.893,0.6 l 0,0 -0.297,0.294 c 0,0.542 -0.694,1.439 -2.081,2.673 l 0,0 2.081,0.297 0.594,0 0.298,-0.297 -0.298,-0.295 0,-0.297 c 1.386,-1.638 2.082,-2.727 2.082,-3.271 l 0,0 0.298,0 0.297,0.296 0.297,0 1.188,-1.783 -0.891,0 c 0,0.794 -0.297,1.188 -0.891,1.188 l 0,0 -0.595,0 c -3.817,-5.944 -7.978,-8.916 -12.487,-8.916 l 0,0 c -2.132,0.195 -3.814,0.593 -5.053,1.184 l 0,0 -0.298,0 -0.296,-0.291 0,0.291 z m -7.134,11.599 0,0.592 0.891,0 0,-0.889 -0.296,-0.298 -0.595,0.595 z m -1.787,-1.785 0.299,0 0,-0.593 -0.891,0 0.592,0.593 z m 0.896,-2.082 0.592,0 -0.592,-0.595 0,0.595 z m -8.918,-1.783 0.592,0 -0.592,-0.593 0,0.593 z m 38.344,-0.297 0.597,-0.592 -0.597,0 0,0.592 z m -31.509,-0.296 0.296,0 0,-0.597 -0.296,0 0,0.597 z m -5.648,-2.379 0,-0.593 -0.595,0 0.595,0.593 z m 6.243,-1.189 0.299,0.299 1.189,-2.087 c -1.189,-0.791 -2.083,-1.184 -2.678,-1.184 l 0,0 -0.299,0 c -0.296,0 -0.592,0.393 -0.89,1.184 l 0,0 c 0,0.7 0.399,1.393 1.189,2.087 l 0,0 0.891,-0.299 0.299,0 z m 37.161,-1.788 0.591,0 0,-0.591 -0.591,0 0,0.591 z m -45.186,-2.376 0,0.595 0.891,0.893 0.891,0 0.892,-0.597 c 0,-0.791 -0.396,-1.388 -1.187,-1.777 l 0,0 -0.596,0 -0.891,0.886 z m 48.455,0.891 0.296,0 0,-0.592 -0.296,0 0,0.592 z m -31.512,-0.296 0,-0.595 -0.595,0 0.595,0.595 z m 24.972,-0.595 0.596,0 0,-0.594 -0.596,0 0,0.594 z m -36.862,-0.594 0.593,0.594 c 0.298,0 0.594,-0.395 0.89,-1.187 l 0,0 0,-0.3 -1.483,0 0,0.893 z m -2.676,0 0.298,0 0,-0.593 -0.298,0 0,0.593 z m 8.918,-12.484 c 0,0.99 -0.199,1.487 -0.593,1.487 l 0,0 c 4.258,6.934 9.215,10.404 14.861,10.404 l 0,0 0.297,0 2.378,-0.3 c 5.748,-2.225 8.623,-5.397 8.623,-9.512 l 0,0 0,-2.674 c 0,-1.737 -0.495,-3.618 -1.487,-5.651 l 0,0 c -0.992,0 -1.487,0.204 -1.487,0.596 l 0,0 c -9.064,4.557 -16.003,6.84 -20.81,6.84 l 0,0 -0.296,0 0,-0.299 0.296,-0.297 0,-0.3 c 0,-0.294 -0.398,-0.594 -1.19,-0.889 l 0,0 -0.592,0.595 z m 37.757,10.701 0.296,0 0,-0.597 -0.296,0 0,0.597 z m -2.676,0 0.593,0 0,-0.597 -0.593,0 0,0.597 z m -44.298,-1.189 0,0.298 0.596,0.591 0.299,0 0.592,-0.591 0,-0.595 -1.487,0.297 z m 9.515,0.593 0.593,-0.593 -0.593,0 0,0.593 z m 35.973,-0.89 0.593,0.595 0.592,-0.595 -0.592,-0.595 -0.593,0.595 z m -35.679,0 0.597,0 0,-0.595 -0.597,0.595 z m -9.809,-0.299 0.596,0 0,-0.593 -0.596,0.593 z m 8.027,-0.894 0.299,-1.483 0,-2.081 -0.299,-0.295 c -1.385,0.392 -2.08,0.888 -2.08,1.485 l 0,0 -0.299,0 c 0,-0.597 -0.296,-0.894 -0.891,-0.894 l 0,0 -0.299,0 0,0.598 0.595,0.59 0.299,0 0.296,-0.294 c 0,1.335 0.795,2.131 2.379,2.374 m -3.865,-0.592 0.296,0 0,-0.596 -0.296,0 0,0.596 z m 35.377,-0.596 0,0.3 0.598,0 0.589,-0.595 0,-0.294 -0.589,0 -0.598,0.589 z m 5.352,-0.295 0,0.295 0.894,0 0.296,-0.295 -0.593,-0.597 -0.597,0.597 z m -6.541,-0.597 0.298,0 0.595,-0.59 -0.893,0 0,0.59 z m 3.569,-0.294 0.594,0 0.295,-0.296 -0.592,-0.598 -0.297,0 0,0.894 z m 1.189,-0.597 0.591,-0.593 0,-0.295 -0.591,0 0,0.888 z m -2.675,-1.189 0.293,0 0,-0.592 -0.889,0 0.596,0.592 z m -1.785,-0.889 0.296,0 0,-1.194 -0.594,0 0.298,1.194 z m -1.787,-0.301 0.3,0 0,-0.593 -0.3,0 0,0.593 z m 4.461,-0.893 0.597,0 0,-0.292 -0.597,0 0,0.292 z m -3.567,-2.374 0.595,0 0,-0.301 -0.595,0 0,0.301 z m -28.834,-1.486 0.595,0 0,-0.296 -0.595,0 0,0.296 z m 2.674,-0.89 0,-0.598 -0.596,0 0.596,0.598 z m -6.838,-4.46 0.296,1.185 -0.296,1.194 0.595,0.594 0.894,0 0.293,-0.895 0,-0.297 c -0.793,-0.742 -1.187,-1.437 -1.187,-2.081 l 0,0 -0.299,0 -0.296,0.3 z m 3.27,2.669 1.19,0 0.298,-0.29 -0.891,-0.894 -0.597,0 0,1.184 z m 7.137,-2.373 0,0.301 0.592,0.588 0.595,0 0.296,-0.889 -0.891,-0.596 -0.592,0.596 z m 19.322,0.301 0.297,0.293 0.595,-0.594 -0.892,0 0,0.301 z m -25.269,0 0.298,0.293 0.593,-0.594 0,-0.596 -0.891,0 0,0.897 z m 1.486,0 0.594,0 0,-0.597 -0.594,0 0,0.597 z m -2.972,-0.301 0.296,0 0,-0.597 -0.296,0 0,0.597 z m 21.403,-0.596 0.594,0 0,-0.295 -0.594,0 0,0.295 z m -25.566,-1.783 0.594,0.893 0.891,-0.893 0,-0.298 -1.485,-0.299 0,0.597 z m -1.187,0.593 0.594,0 0,-0.593 -0.241,0 0.113,0.114 -0.296,0 -0.113,-0.114 -0.057,0 0,0.593 z m 24.08,-0.292 0.592,0 0,-0.301 -0.592,0 0,0.301 z m -14.866,0 0.293,0 0,-0.599 -0.293,0 0,0.599 z m 3.569,-0.599 0.592,0 0,-0.299 -0.592,0 0,0.299 z m -13.974,-0.299 0,0.299 0.297,0 0.297,-0.299 0,-0.295 -0.297,0 -0.297,0.295 z m 20.809,0 0.595,0 0,-0.59 -0.595,0.59 z m -11.891,0 0.299,0 0,-0.589 -0.299,0 0,0.589 z m -5.65,-1.189 c 0,0.346 0.497,0.648 1.489,0.894 l 0,0 0,-0.295 -0.894,-0.895 -0.296,0 -0.299,0.296 z m -4.458,0.894 0.596,0 0,-0.593 -0.596,0.593 z m 7.731,-1.19 0.296,0.895 0.597,0 0,-0.895 -0.298,-0.296 -0.299,0 -0.296,0.296 z m 7.134,0.597 0.299,0 0,-0.597 -0.299,0 0,0.597 z m -0.89,-1.19 0.295,0 0,-0.592 -0.295,0 0,0.592 z m 12.185,-0.297 0.301,0 0,-0.595 -0.301,0 0,0.595 z m -13.972,68.969 c -1.782,-1.537 -2.673,-3.222 -2.673,-5.052 l 0,0 0,-0.893 c 0,-2.776 2.178,-4.56 6.539,-5.35 l 0,0 c 3.664,0 5.747,1.385 6.244,4.159 l 0,0 0,0.894 c 0,1.19 -0.597,1.782 -1.785,1.782 l 0,0 -0.892,0 -0.296,-0.89 1.485,-2.38 c 0,-1.439 -1.288,-2.329 -3.864,-2.677 l 0,0 -1.19,0 c -2.774,0 -4.359,1.587 -4.757,4.759 l 0,0 0,0.298 c 0,1.535 0.496,2.723 1.49,3.568 l 0,0 0,0.296 -0.301,0.295 0,0.895 0.301,0.296 -0.301,0 z m 91.777,-21.771 c -9.428,-2.756 -14.142,-6.071 -14.142,-9.928 l 0,0 0,-30.697 c 0,-3.207 1.103,-6.223 3.311,-9.032 l 0,0 0,-1.503 0.603,-0.6 0.3,0 0,0.905 -0.605,0 0,0.605 1.803,-1.51 0,-0.602 -0.3,0 0,0.602 -0.602,0 c 0.404,-0.903 0.8,-1.404 1.208,-1.506 l 0,0 -0.606,-0.598 c -0.496,1.405 -1.198,2.104 -2.103,2.104 l 0,0 0,-0.3 -0.601,0 0,-0.302 0.903,0 c 0,-0.603 0.298,-0.9 0.903,-0.9 l 0,0 0,-0.303 -0.062,-0.06 3.371,-0.842 0.299,0 0.302,-0.305 0.298,0 0,0.305 -0.298,0.299 1.809,0.603 0.297,-0.299 0.602,0 0,0.299 c 8.523,6.717 14.037,10.732 16.545,12.035 l 0,0 0.301,0 0,-0.901 c 0,-2.155 2.009,-5.062 6.021,-8.729 l 0,0 1.202,0.605 0,-0.605 -0.606,0 2.709,-2.704 3.01,2.404 -0.604,0.905 0,0.898 0.905,-0.297 0,-0.601 -0.301,-0.3 0.301,0 0.304,-0.305 c 0.297,0 0.598,0.402 0.898,1.206 l 0,0 -0.3,0 c 0,0.504 0.798,1.003 2.405,1.502 l 0,0 0,0.903 -0.3,0.302 0.3,0 -0.597,0.903 0,0.3 0.297,0 0.3,-0.3 0.302,0 0,0.3 -0.602,0.905 0.602,0 0,-0.601 0.602,0 0.603,0.601 0,0.6 -1.205,0 0,0.604 0.901,0 c 0.651,0 1.358,0.302 2.107,0.898 l 0,0 0,0.305 -0.302,0.297 0.302,0 0.901,-0.602 -0.3,-0.898 0,-0.303 0.3,-0.301 -1.203,0 0,-0.299 0.302,-0.301 0,-0.301 -2.107,-0.3 c 0,-0.604 -0.299,-0.909 -0.901,-0.909 l 0,0 0,-1.803 1.504,0.903 0,0.302 -0.299,0.301 0,0.297 0.299,0 0.302,-0.297 0.596,0 0,0.297 -0.299,0.305 c 0.75,0 1.356,0.397 1.806,1.205 l 0,0 c 0.401,0 0.6,0.398 0.6,1.204 l 0,0 0.603,1.203 0.303,-0.305 1.802,1.206 0,0.301 -0.299,0.309 -2.409,-0.61 0,0.301 -0.299,-0.301 -0.301,0 -0.3,0.301 -0.601,0 -0.302,-0.301 0,0.301 0.302,0.309 -1.504,0.896 0,-0.896 -0.603,0 0,0.292 0.603,0.604 -0.603,1.807 -0.299,0.303 -0.306,-0.303 -0.598,0 0,-0.297 0.904,-0.305 -0.602,-0.603 -1.504,0 0,0.303 -1.203,1.8 0.601,0 0,0.307 -0.301,0.299 0.6,0 0.605,-1.504 -0.302,-0.297 1.504,0.6 0.296,0 -0.296,0.902 0.296,1.201 -0.296,0.906 0.602,0 0,3.605 -0.306,0.305 0.306,0.3 0,4.814 -0.904,0.299 -0.597,-0.599 -0.908,0.3 -0.9,-0.3 -0.902,0.3 0,0.3 0.601,0.605 0.301,0 0.9,-0.605 c 1.153,0.654 1.953,1.358 2.409,2.108 l 0,0 0,13.241 c 0.397,3.211 1.707,4.818 3.907,4.818 l 0,0 2.108,0 0.6,0.598 0,1.204 c -9.531,2.56 -16.846,6.672 -21.962,12.34 l 0,0 -0.297,0.3 c -4.709,-3.661 -9.627,-6.57 -14.74,-8.727 m 2.714,-16.253 0,0.605 -1.515,0.601 0,0.3 c 1.007,0 1.515,0.3 1.515,0.904 l 0,0 0,12.342 3.905,-3.616 6.011,-3.606 0,-7.225 c 0.806,-0.103 1.207,-0.402 1.207,-0.902 l 0,0 0,-0.304 -0.301,0 -0.301,0.304 -0.605,-0.601 0,-0.304 0.302,-0.3 -0.302,-0.301 0,-10.834 0.302,-0.301 -0.302,-0.299 0,-0.305 0.906,0 0,-0.901 -0.906,0 0,-8.424 c -3.657,-2.06 -6.064,-3.16 -7.222,-3.312 l 0,0 c -0.898,0 -1.695,0.703 -2.406,2.108 l 0,0 0,0.299 0.608,0 0,0.301 c -0.608,0 -0.896,0.203 -0.896,0.604 l 0,0 0,2.107 0.593,0 0,-0.605 0.303,0 0.301,0.298 0.3,0 0.3,-0.298 0,0.904 -0.6,0 0.3,0.301 -0.904,0.902 -0.305,0 -0.288,-0.301 0,0.602 0.288,0.301 -0.288,0.3 0,0.3 0.288,0.305 -0.288,0.3 0,4.214 -0.309,1.502 0.309,0.303 0,0.301 -0.309,0.298 0.309,0.304 0,3.011 -1.515,-0.304 0,0.605 1.515,0.296 0,6.32 -1.212,-0.601 c -1.605,0 -2.407,-0.601 -2.407,-1.808 l 0,0 -0.903,0.605 c 0.602,0.602 0.903,1.304 0.903,2.105 l 0,0 1.503,-0.303 c 0.601,0.603 1.306,0.903 2.116,0.903 m 23.763,11.739 0.297,0 0,-0.603 -0.297,0 0,0.603 z m -2.108,-2.706 1.201,0.3 0,-0.602 -0.608,0 0.306,-0.303 0,-0.302 -0.899,0.907 z m -0.298,-1.204 0.599,0 0,-0.3 -0.599,0 0,0.3 z m -5.12,-4.516 0,0.304 1.202,0.297 -0.296,0.303 0,0.303 0.902,-0.903 c -0.606,0 -0.902,-0.205 -0.902,-0.605 l 0,0 -0.906,0.301 z m 2.403,0.304 0.607,-0.605 -0.607,0 0,0.605 z m -5.714,-3.312 0.303,1.206 0.296,0 0.607,-0.606 0,-0.3 -0.607,-0.601 -0.296,0 -0.303,0.301 z m 2.105,1.201 0.604,-0.601 -0.604,0 0,0.601 z m -3.908,-0.901 0.609,0 0,-0.3 -0.609,0 0,0.3 z m -16.546,-2.107 0.303,0 0,-0.3 -0.601,-0.602 -0.603,0 0.901,0.902 z m 29.186,-3.008 0.598,0 0,-0.301 -0.598,0 0,0.301 z m -28.584,-0.304 0.299,0 -0.299,-1.502 -0.602,0 0.602,1.502 z m -3.911,-2.407 0.602,0 0,0.309 c 0,0.393 -0.304,0.596 -0.904,0.596 l 0,0 c 0.204,0.802 0.8,1.202 1.807,1.202 l 0,0 0.304,0 0.297,-0.302 c 0,-0.597 -0.403,-0.9 -1.201,-0.9 l 0,0 0,-0.298 0.6,0 0,-0.308 c -0.6,0 -0.903,-0.198 -0.903,-0.595 l 0,0 -0.602,0 0,0.296 z m 3.309,-1.803 0.303,0 -0.601,-0.605 -0.303,0 0.601,0.605 z m 18.948,-1.805 0.309,0.299 1.197,0.305 0.604,0.596 0,-0.901 -1.202,-0.6 -0.908,0 0,0.301 z m -24.064,0.6 0.301,0 -0.597,-0.6 -0.303,0 0.599,0.6 z m 2.409,-1.856 -0.304,1.507 0,0.3 0.607,0 0,-0.603 -0.303,-0.302 0.903,-0.302 0,-0.6 -1.207,-0.295 0.304,0.295 z m -2.108,0.955 0.609,0 0,-0.302 -0.609,0 0,0.302 z m -1.802,-1.502 0.902,0 1.805,0.597 0,-0.296 0.299,-0.301 -0.595,-0.905 -0.304,0 -0.305,0.303 -0.301,0 -0.599,-0.604 c 0,-1.205 -0.204,-1.806 -0.606,-1.806 l 0,0 -0.602,0 0.306,3.012 z m 27.071,-0.905 1.506,0 0,-0.305 -1.506,0 0,0.305 z m 1.505,-1.506 0.903,0.9 -0.296,-1.205 -0.607,0 0,0.305 z m 5.712,-4.511 c 0,2.004 0.406,3.008 1.211,3.008 l 0,0 0,0.301 -0.301,0.3 0,0.902 1.503,0 0.6,-0.601 -1.498,-0.301 0,-0.3 0.297,-0.301 0.902,0.301 c 0.602,-0.454 0.904,-0.957 0.904,-1.506 l 0,0 0.6,0 0,0.603 0.602,0 0,-0.603 c -0.507,0 -0.806,-0.403 -0.899,-1.202 l 0,0 -0.908,0.603 -1.201,-0.907 0,0.304 0.902,1.202 c 0,0.398 -0.601,0.703 -1.804,0.896 l 0,0 0,-0.896 0.605,0 0,-0.3 -0.605,0 -0.302,0.3 0,-0.3 c 0,-0.408 0.302,-0.605 0.907,-0.605 l 0,0 0,-0.601 c -0.81,0 -1.209,-0.2 -1.209,-0.602 l 0,0 -0.306,0 0,0.305 z m -9.019,4.206 0.903,0.305 0,-0.305 -0.298,-0.296 -0.605,0 0,0.296 z m 13.237,-0.597 0,0.301 0.602,0 0,-0.902 -0.602,0.601 z m -26.466,-4.214 0.289,0 0,-0.602 -0.289,0 0,0.602 z m 26.766,-4.517 0.302,0 0.602,-0.601 -0.904,-0.301 0,0.902 z m -2.706,-0.601 1.201,0.309 0,-0.309 0.303,-0.301 -1.504,0 0,0.301 z m -1.204,0 0.603,-0.601 0,-0.601 -0.603,-0.601 -0.302,0 0.302,1.803 z m 2.708,-2.708 0.605,0 0,-0.301 -0.605,0 0,0.301 z m -1.504,0 0.301,0 0,-0.6 -0.902,0 0.601,0.6 z m -0.601,-2.708 0,-0.603 -0.603,0 0.603,0.603 z m -30.382,-5.717 0.599,0 0,-0.302 -0.599,0 0,0.302 z m -1.207,0 0.6,0 0,-0.302 -0.6,0 0,0.302 z m 134.072,59.343 -13.057,-6.528 c -4.098,-0.456 -4.248,-5.163 -4.248,-6.982 l 0,0 0.452,-32.8 c 0,-3.79 -0.452,-6.22 -1.52,-7.437 l 0,0 c -1.06,-1.21 -1.973,-1.819 -2.728,-1.819 l 0,0 c -0.609,0 -0.915,-0.302 -0.915,-1.064 l 0,0 c 0,-1.062 0.46,-1.822 1.216,-1.972 l 0,0 c 0.762,-0.155 1.517,-0.305 2.281,-0.305 l 0,0 2.426,0 c 4.16,0 7.142,-0.768 9.608,-1.818 l 0,0 c 0.05,-0.026 0.1,-0.045 0.148,-0.069 l 0,0 c 0.128,-0.056 0.248,-0.118 0.374,-0.174 l 0,0 c 3.457,-1.738 7.058,-4.145 10.782,-7.158 l 0,0 c 0.014,-0.015 0.03,-0.028 0.042,-0.041 l 0,0 c 0.416,-0.418 0.789,-0.763 1.137,-1.066 l 0,0 -6.865,-3.922 c -17.239,-9.755 -29.436,-14.637 -36.586,-14.637 l 0,0 -4.663,0.34 c -7.533,2.321 -11.309,5.432 -11.309,9.303 l 0,0 c 0.778,6.211 3.548,9.313 8.316,9.313 l 0,0 c 3.772,0 7.324,-0.775 10.647,-2.328 l 0,0 0.66,0.666 0,0.335 c 0,1.16 -3.099,1.935 -9.309,2.325 l 0,0 -1.331,0 -2.998,-0.333 c -4.654,-1.494 -6.98,-4.595 -6.98,-9.312 l 0,0 0,-1.326 0.329,-2.33 c 3.605,-5.541 9.591,-8.317 17.966,-8.317 l 0,0 3.324,0 c 7.983,0 21.731,5.771 41.247,17.295 l 0,0 c 14.084,9.094 26.277,13.637 35.928,13.637 l 0,0 2.992,0 c 14.413,-2.213 21.619,-6.318 21.619,-12.305 l 0,0 0,-0.335 c -2.047,-6.205 -7.484,-9.306 -16.298,-9.306 l 0,0 -1.665,0 c -10.201,0 -22.281,3.325 -36.254,9.972 l 0,0 -1.329,-0.331 0,-0.327 c 13.799,-7.098 26.217,-10.649 37.254,-10.649 l 0,0 1.328,0 c 12.416,0 18.628,3.884 18.628,11.642 l 0,0 -1.664,4.651 c -5.545,5.761 -13.971,8.648 -25.279,8.648 l 0,0 -4.323,0 -6.319,-0.663 -0.336,0 -12.268,-3.483 0,0.074 c 1.619,1.05 3.315,2.017 5.5,3.244 l 0,0 c 3.19,1.824 4.867,3.181 4.867,4.402 l 0,0 0,41.449 c 0,2.58 -1.371,3.947 -2.893,4.249 l 0,0 c -12.448,1.974 -20.798,7.438 -23.225,8.807 l 0,0 c -0.459,0.302 -1.062,0.453 -1.672,0.453 l 0,0 c -0.76,0 -1.214,-0.758 -3.037,-1.668 m 5.315,-57.543 -4.706,2.886 c -1.06,0.611 -1.822,1.823 -1.822,3.187 l 0,0 0.605,39.931 c 0,2.126 1.671,3.796 3.799,3.796 l 0,0 c 0.759,0 1.363,-0.151 1.977,-0.454 l 0,0 4.7,-2.888 c 1.063,-0.606 1.822,-1.82 1.822,-3.183 l 0,0 -0.605,-39.934 c 0,-2.127 -1.671,-3.795 -3.796,-3.795 l 0,0 c -0.758,0 -1.363,0.146 -1.974,0.454 m -253.437,58.534 -2.662,-0.885 0,-0.594 -0.59,0 -0.298,0.297 c -1.382,-0.693 -2.07,-1.382 -2.07,-2.073 l 0,0 -1.776,0.299 -13.612,-5.921 c -6.313,-2.81 -9.47,-9.615 -9.47,-20.418 l 0,0 0,-0.296 c 0,-9.913 1.776,-16.914 5.327,-21.01 l 0,0 -0.592,0 0,-0.59 0.888,0 0.297,0.297 c 0,-0.445 0.592,-1.332 1.774,-2.665 l 0,0 0.296,0 0.296,0.294 0.592,-0.59 0,-0.295 0.223,-0.768 -1.407,0.472 -0.886,0 1.182,-1.186 0.888,0 0.333,0.333 -0.11,0.381 0.369,-0.12 -0.259,-0.261 2.329,-8.025 2.071,-0.593 0,0.297 c 0.988,0 1.482,0.296 1.482,0.889 l 0,0 0.297,0 0.296,-0.299 0.592,0.593 -0.888,0 c 0.148,0.59 0.54,0.984 1.181,1.183 l 0,0 c 0,-0.786 0.495,-1.183 1.482,-1.183 l 0,0 0.592,0.59 1.182,-0.59 2.366,0.297 0.592,0 0,-0.297 -1.183,0 0,-0.294 -2.662,0 0,-0.299 1.479,-0.59 1.183,0.59 0,0.299 c 1.777,-0.151 2.665,-0.447 2.665,-0.889 l 0,0 0,-0.297 -2.665,0 0,-0.295 14.5,-5.035 3.847,0.597 0.296,-0.888 0.296,0 0.593,0.592 3.55,-0.301 2.958,0.301 0,0.296 -1.774,0.297 0,0.888 0.296,0.296 -0.592,0 -0.298,-0.296 0,-0.3 0.298,-0.296 0,-0.292 c -0.986,0.097 -1.478,0.394 -1.478,0.888 l 0,0 -0.297,-0.3 -2.663,0.596 0,0.295 0.293,0.294 -0.886,-0.294 c -4.735,1.577 -10.063,3.652 -15.981,6.213 l 0,0 -0.885,-0.593 -0.89,0 2.961,2.669 0.295,0 0,-0.297 -0.295,-0.301 0.885,0 0,0.598 0.297,0 0.298,-0.297 0.294,0 c 0,0.636 0.494,1.229 1.48,1.774 l 0,0 -0.296,0.294 3.849,3.255 c 2.313,1.28 6.161,4.342 11.541,9.175 l 0,0 0,0.296 -0.593,1.178 -0.296,0 c -3.65,-3.353 -7.103,-5.026 -10.355,-5.026 l 0,0 c -3.21,0 -6.07,0.789 -8.583,2.368 l 0,0 c 0,0.392 0.591,0.589 1.774,0.589 l 0,0 0,0.595 -0.592,0 -1.774,-0.595 c -0.84,0.985 -1.528,1.481 -2.073,1.481 l 0,0 0,1.477 0.295,0 0.296,-0.293 0.889,0 0,0.293 -0.297,0.301 0,0.297 0.297,0.29 -2.07,-0.587 c -0.642,0 -1.728,2.071 -3.256,6.213 l 0,0 3.256,1.773 0,0.299 -0.298,0.293 0,0.594 0.592,0 0,-0.887 2.665,1.478 0,0.592 -1.186,-0.296 -0.295,0 -0.297,0.296 -0.296,0 -0.295,-0.296 -0.296,0 0,0.593 1.479,0.292 0.297,0 0.297,-0.292 0.296,0 0.296,0.292 0.296,0 0.293,-0.292 c 0,0.589 0.199,0.885 0.593,0.885 l 0,0 0.296,0 0,-0.593 2.959,1.778 0,0.298 -0.296,0.295 0,0.292 0.296,0.301 1.481,-0.301 0,0.596 -0.296,0.295 0.885,0.293 0.888,-0.293 11.839,7.394 0,0.597 -2.368,3.847 -0.296,-0.298 -0.296,0 0.296,0.298 -9.767,15.384 -0.296,0 z m -0.885,-0.59 0.885,0.299 0,-0.299 0.296,-0.295 0,-0.297 -1.181,0 0,0.592 z m 1.181,-1.48 0.592,0 0,-0.593 -0.592,0.593 z m -2.07,0 0.593,0 0,-0.593 -0.593,0 0,0.593 z m 0.593,-1.774 0,0.295 0.592,0.593 0.297,0 0.887,-0.593 -0.299,-0.887 -0.885,0 -0.592,0.592 z m -2.071,-0.299 0.589,0 0,-0.589 -0.589,0 0,0.589 z m -0.595,-1.476 0,0.294 2.073,-0.294 0,-0.889 c -1.381,0.199 -2.073,0.493 -2.073,0.889 m -5.029,0 0,0.294 0.888,0 0,-0.886 -0.297,0 -0.591,0.592 z m 7.695,-0.889 0.592,0.591 0.297,-0.888 -0.297,0 -0.296,-0.295 -0.296,0 0,0.592 z m -9.47,0.591 0.592,-0.591 -0.592,0 0,0.591 z m 5.622,-0.294 0.592,0 0,-0.594 -0.592,0 0,0.594 z m 5.029,-0.297 0.595,0 0,-0.592 -0.595,0 0,0.592 z m 0.595,-0.592 c 0.786,0 1.183,-0.198 1.183,-0.591 l 0,0 0,-0.592 -0.297,-0.295 -0.296,0 -0.297,0.295 -0.293,0 0,-0.889 c -1.382,0.197 -2.073,0.494 -2.073,0.889 l 0,0 0,0.295 0.297,0.297 1.181,-0.592 0.595,1.183 z m -6.806,-1.478 0,0.59 0.886,0 0.888,-0.889 0.297,0 0.293,0.299 0.297,0 0.592,-0.594 0,-0.297 -1.479,0 c -0.641,0.592 -1.234,0.891 -1.774,0.891 m -7.4,-18.051 -0.296,0.294 0.296,0.296 0,17.756 11.541,-17.162 c -0.346,-0.594 -4.092,-2.96 -11.244,-7.103 l 0,0 -0.297,0 0,5.919 z m 5.326,18.051 c 0.986,0 1.58,-0.299 1.778,-0.891 l 0,0 0,-0.294 -0.296,0 -1.482,1.185 z m 10.063,-1.48 0,0.589 0.594,0.592 0.296,0 0.587,-0.592 c 0,-0.589 0.299,-0.885 0.89,-0.885 l 0,0 0,-0.296 -0.295,-0.297 c -1.38,0.146 -2.072,0.442 -2.072,0.889 m 2.96,0.886 0.294,0 0,-0.591 -0.294,0 0,0.591 z m -14.204,0 0.59,0 0,-0.297 -0.59,0 0,0.297 z m -9.472,-0.591 0.595,0.591 1.183,-0.591 -0.889,-0.887 -1.184,0 c 0,0.592 -0.194,0.887 -0.593,0.887 l 0,0 0.593,0.591 0,-0.591 0.295,0 z m 14.206,-0.295 0,-0.592 -0.593,0 0.593,0.592 z m -11.542,-0.592 0.593,0.592 0.593,0 0,-0.889 -0.89,0 -0.296,0.297 z m -6.51,0 0,0.296 0.888,0 0,-1.183 -0.592,-0.594 -0.296,1.481 z m 28.408,0 0.295,0 0,-0.592 -0.295,0 0,0.592 z m -12.131,-0.297 0.296,0 0,-0.59 -0.296,0 0,0.59 z m -8.285,0 0.293,0 0,-0.59 -0.293,0 0,0.59 z m -4.441,-0.888 0,0.298 0.592,0.59 0.592,-0.59 0,-0.893 -0.592,0 -0.592,0.595 z m -2.367,0.888 0.592,0 0,-0.59 -0.592,0 0,0.59 z m 6.808,-1.184 0,0.296 0.592,0 0.293,-0.296 0,-0.299 -0.293,-0.292 -0.592,0.591 z m 8.285,0 0.589,-0.591 -0.589,0 0,0.591 z m 7.102,-1.776 0,0.296 0.293,0.297 c 0.593,0 0.89,0.195 0.89,0.592 l 0,0 0.594,-0.592 c -0.497,0 -0.791,-0.396 -0.891,-1.185 l 0,0 -0.886,0.592 z m -26.043,1.185 0.593,0 -0.593,-0.592 0,0.592 z m 23.378,-1.481 0.296,0 1.482,1.186 0,-0.297 0.292,-0.297 0,-0.888 -2.07,-0.293 0,0.589 z m 5.92,0.592 0.591,0 0,-0.591 -0.591,0 0,0.591 z m -11.246,0 0.297,0 0.592,-0.592 0,-0.296 -0.889,0 0,0.888 z m 15.385,-1.181 0,0.293 0.89,0 0,-0.885 -0.297,0 -0.593,0.592 z m -2.661,-0.592 0,0.293 0.888,0 0,-0.887 -0.297,0 -0.591,0.594 z m -5.917,0.293 0.297,0 0.588,-0.591 -0.885,0 0,0.591 z m -23.081,-0.293 2.366,0 0,-0.889 -1.48,-0.296 -0.886,0 0,1.185 z m 30.774,-0.594 0,0.296 0.297,0 0.588,-0.591 0,-0.296 -0.292,0 -0.593,0.591 z m -1.776,-1.184 0.591,-0.591 0,-0.297 -0.591,0 0,0.888 z m -7.398,0 0.592,0 0.297,-0.297 -0.593,-0.591 -0.296,0.888 z m -4.437,0 0.887,0 0,-0.591 -0.887,0 0,0.591 z m -16.571,-0.591 0.59,0 0,-0.297 -0.59,0 0,0.297 z m 26.928,-1.774 0.887,0 0,-0.594 -0.887,0 0,0.594 z m -32.258,-1.185 0,0.296 0.891,0.295 c 0.788,-0.295 1.184,-0.591 1.184,-0.888 l 0,0 -0.888,-0.889 -1.187,1.186 z m 0.891,-5.03 0.592,0.59 0.296,0 0.296,-0.293 -0.296,-0.89 -0.888,0 0,0.593 z m 12.132,-0.297 0.592,0 0,-0.59 -0.592,0 0,0.59 z m -13.615,-1.183 0.592,0 0,-0.891 -0.592,0 0,0.891 z m 13.912,-1.183 0.888,0 0,-0.593 -0.3,0 -0.588,0.593 z m -11.245,0 0.296,0 0,-0.593 -0.296,0 0,0.593 z m 14.5,-3.552 0.591,0 0,-0.297 -0.591,0 0,0.297 z m -3.848,-0.591 0.593,0.591 0.888,0 0,-0.297 -0.592,-0.592 -0.593,0 -0.296,0.298 z m -11.54,0 0.592,0 0,-0.594 -0.592,0 0,0.594 z m 0,-4.439 0.592,0 -0.592,-0.592 0,0.592 z m -1.187,-0.887 0.301,0 0,-0.887 -0.301,0 0,0.887 z m 15.39,-1.188 0.296,0 0,-0.587 -0.889,0 0.593,0.587 z m -15.982,-0.295 0,0.295 0.592,0 0.593,-0.587 0,-0.297 -0.593,0 -0.592,0.589 z m 15.982,-0.885 0.593,-0.594 -0.593,0 0,0.594 z m 1.776,-1.478 0.591,0 0,-1.19 0.887,0.596 0,-0.887 -0.591,0 0,-0.594 0.296,-0.293 -0.592,0 -0.295,0.293 0,0.297 0.295,0.297 -0.591,0.887 -0.887,-0.596 -0.593,0 0,0.596 0.593,0 0.296,-0.295 c 0,0.588 0.195,0.889 0.591,0.889 m -12.428,-4.145 0.592,0 -0.592,-0.592 0,0.592 z m 14.794,-0.296 0.591,0 0.592,-0.593 0,-0.592 -1.183,0.592 0,-0.294 -0.296,0 0.296,0.887 z m 2.958,-0.593 0.593,0 0,-0.592 -0.593,0.592 z m 2.071,-0.592 0.297,0 0.592,-0.59 0,-0.299 -0.889,0 0,0.889 z m 4.442,-0.889 0.59,0 0,-0.292 -0.59,0 0,0.292 z m -26.338,0 0.592,0 -0.592,-0.589 0,0.589 z m 28.702,-0.292 0.296,0 0,-0.594 -0.296,0 0,0.594 z m -7.396,-0.297 0,0.297 0.887,0 0,-0.89 -0.297,0 -0.59,0.593 z m 4.733,-1.185 0.592,0 0,-0.592 -0.592,0.592 z m -3.846,-0.296 0.888,0 0,-0.589 -0.296,0 -0.592,0.589 z m -15.683,-3.254 0.295,0 0,-0.591 -0.295,0 0,0.591 z m 0.295,-1.185 0.595,0.594 0,-0.888 -0.298,0 -0.297,0.294 z m 0.297,-0.888 0.888,0.297 0,-0.591 -0.59,-0.589 -0.298,0 0,0.883 z m 2.367,-1.771 0.296,0.295 0.593,-0.594 -0.889,0 0,0.299 z m 13.316,0 0.296,0 -1.185,-0.892 0.889,0.892 z m -13.316,-1.78 0,0.598 0.296,0.29 -0.296,0.297 c 1.677,0 2.663,-0.496 2.96,-1.482 l 0,0 -2.96,0.297 z m 8.878,-0.589 0.593,0 0,-0.298 -0.593,0 0,0.298 z m 1.478,-1.778 0.298,0 0,-0.59 -0.887,-0.297 -0.296,0 0.885,0.887 z m 206.199,59.189 -10.912,-5.454 c -3.424,-0.382 -3.551,-4.316 -3.551,-5.835 l 0,0 0.378,-27.412 c 0,-3.167 -0.378,-5.201 -1.271,-6.215 l 0,0 c -0.885,-1.014 -1.648,-1.52 -2.281,-1.52 l 0,0 c -0.506,0 -0.763,-0.254 -0.763,-0.891 l 0,0 c 0,-0.89 0.385,-1.523 1.017,-1.649 l 0,0 c 0.635,-0.126 1.266,-0.254 1.905,-0.254 l 0,0 2.026,0 c 5.587,0 8.631,-1.646 11.419,-3.297 l 0,0 c 2.798,-1.649 4.828,-3.175 6.093,-4.442 l 0,0 c 1.267,-1.269 2.156,-1.904 2.79,-1.904 l 0,0 c 0.389,0 0.888,0.13 1.269,0.512 l 0,0 c 6.475,6.086 8.375,7.226 13.575,10.144 l 0,0 c 2.666,1.527 4.068,2.663 4.068,3.683 l 0,0 0,34.637 c 0,2.158 -1.146,3.3 -2.415,3.554 l 0,0 c -10.404,1.65 -17.383,6.216 -19.412,7.361 l 0,0 c -0.385,0.252 -0.887,0.377 -1.396,0.377 l 0,0 c -0.638,0 -1.016,-0.634 -2.539,-1.395 m 4.441,-48.089 -3.933,2.414 c -0.885,0.507 -1.522,1.522 -1.522,2.663 l 0,0 0.506,33.371 c 0,1.776 1.399,3.17 3.172,3.17 l 0,0 c 0.638,0 1.143,-0.126 1.654,-0.378 l 0,0 3.927,-2.413 c 0.889,-0.508 1.525,-1.521 1.525,-2.662 l 0,0 -0.507,-33.372 c 0,-1.78 -1.397,-3.173 -3.173,-3.173 l 0,0 c -0.634,0 -1.139,0.122 -1.649,0.38 m -261.498,46.762 -2.195,-9.346 -1.719,-7.325 -2.296,-9.789 -0.831,-3.531 c 0.075,-0.182 0.166,-0.369 0.276,-0.559 l 0,0 0.005,-0.008 c 0.335,-0.595 0.851,-1.236 1.591,-1.904 l 0,0 c 0.011,-0.01 0.02,-0.019 0.028,-0.025 l 0,0 c 0.175,-0.162 0.369,-0.321 0.569,-0.479 l 0,0 c 0.02,-0.015 0.037,-0.033 0.055,-0.045 l 0,0 c 0.204,-0.159 0.419,-0.321 0.646,-0.478 l 0,0 c 0.024,-0.017 0.049,-0.033 0.072,-0.049 l 0,0 c 0.233,-0.162 0.477,-0.323 0.736,-0.485 l 0,0 c 0.024,-0.014 0.049,-0.031 0.072,-0.045 l 0,0 c 0.268,-0.164 0.549,-0.334 0.849,-0.499 l 0,0 c 0.012,-0.007 0.022,-0.01 0.033,-0.018 l 0,0 c 0.616,-0.341 1.301,-0.685 2.058,-1.027 l 0,0 c 0.032,-0.017 0.06,-0.029 0.093,-0.045 l 0,0 c 0.357,-0.159 0.733,-0.319 1.12,-0.479 l 0,0 c 0.058,-0.022 0.115,-0.045 0.17,-0.069 l 0,0 c 0.382,-0.154 0.783,-0.309 1.198,-0.462 l 0,0 c 0.07,-0.025 0.141,-0.052 0.213,-0.078 l 0,0 c 0.417,-0.154 0.848,-0.303 1.298,-0.456 l 0,0 c 0.077,-0.025 0.158,-0.051 0.24,-0.075 l 0,0 c 0.456,-0.153 0.926,-0.302 1.418,-0.452 l 0,0 c 0.079,-0.021 0.158,-0.045 0.238,-0.069 l 0,0 c 0.492,-0.148 1.001,-0.292 1.531,-0.439 l 0,0 c 0.068,-0.019 0.14,-0.035 0.21,-0.056 l 0,0 c 0.503,-0.136 1.025,-0.269 1.558,-0.404 l 0,0 c 0.132,-0.031 0.26,-0.062 0.393,-0.097 l 0,0 c 0.1,-0.025 0.205,-0.049 0.308,-0.075 l 0,0 c 0.173,-0.042 0.343,-0.081 0.521,-0.124 l 0,0 c 0.126,-0.028 0.254,-0.058 0.382,-0.087 l 0,0 c 0.239,-0.057 0.48,-0.11 0.723,-0.165 l 0,0 c 0.215,-0.046 0.434,-0.095 0.653,-0.14 l 0,0 c 0.191,-0.043 0.38,-0.086 0.573,-0.125 l 0,0 c 0.42,-0.086 0.845,-0.176 1.283,-0.261 l 0,0 c 0.049,0.054 0.101,0.106 0.15,0.159 l 0,0 c 0.002,0 0.004,-0.003 0.004,-0.004 l 0,0 0.021,5.986 0.076,20.237 0.018,4.754 0.006,1.814 c -1.889,2.55 -7.855,4.702 -13.524,8.021 l 0,0 c -0.16,0.093 -0.318,0.184 -0.477,0.278 l 0,0 -0.346,-1.475 z m 47.9,-30.339 -0.888,-0.889 c 0.986,0.15 1.479,0.445 1.479,0.889 l 0,0 -0.591,0 z m 1.48,-6.215 0,-0.594 0.297,0 0.592,0.594 -0.889,0 z m -63.392,-23.138 c -2.113,-8.688 -0.467,-10.099 3.995,-8.457 l 0,0 c 4.928,1.882 20.662,7.988 22.307,7.988 l 0,0 c 1.644,0 1.878,3.988 1.878,5.634 l 0,0 0.038,10.224 c -0.829,0.219 -1.657,0.432 -2.493,0.658 l 0,0 -0.03,-0.018 c -0.035,0.019 -0.072,0.035 -0.107,0.05 l 0,0 c -0.036,0.012 -0.073,0.02 -0.108,0.03 l 0,0 c 0.002,0.006 0.002,0.015 0.003,0.019 l 0,0 c -4.154,1.89 -14.387,3.023 -20.063,6.957 l 0,0 -5.42,-23.085 z m 63.985,21.957 0.592,0 0,0.29 -0.592,0 0,-0.29 z m 129.879,-1.758 0,-0.297 0.601,0.601 0,0.301 -0.601,-0.605 z m -107.094,-2.092 0.293,0 0,0.592 -0.293,0 0,-0.592 z m -16.571,-0.592 0.589,0 -0.589,0.592 0,-0.592 z m -3.551,0 0,-0.296 0.59,0.593 0,0.295 -0.59,-0.592 z m 4.14,-0.296 -0.292,-0.296 0.588,-0.591 0.299,0 0,0.591 -0.299,0.296 -0.296,0 z m 0.595,-1.185 0.59,0 0,0.298 -0.59,0 0,-0.298 z m 122.782,-0.349 0.6,0 0,0.302 -0.6,0 0,-0.302 z m -106.213,-0.54 0.299,0 0,0.593 -0.299,0 0,-0.593 z m -3.845,0 0.59,0 0,0.3 -0.59,0 0,-0.3 z m 142.847,-0.365 0.599,-0.601 -0.3,-1.202 0,-0.296 1.806,0.897 0,0.3 -0.296,1.506 -1.809,-0.604 z m -149.062,-2.294 0.593,-0.593 0,0.593 -0.593,0 z m 2.663,-0.889 0,-0.592 0.889,0 -0.593,0.592 -0.296,0 z m 3.552,-1.185 0.591,0 0,0.593 -0.591,-0.593 z m -2.663,0.593 0,-0.593 0.889,0 -0.596,0.593 -0.293,0 z m -7.401,-1.775 0.595,-0.594 0,0.594 -0.595,0 z m 101.471,-3.178 0.598,0 -0.598,0.604 0,-0.604 z m -91.11,0.514 0,-0.294 0.59,-0.89 0.297,0.296 0.293,0 0.298,-0.296 0,0.296 -1.184,0.888 -0.294,0 z m -8.878,0 0,-0.294 c 0.59,0 0.886,-0.2 0.886,-0.594 l 0,0 0.592,0.594 -0.888,0.294 -0.59,0 z m 102.091,-0.853 0.604,0 0,0.599 -0.604,0 0,-0.599 z m -99.132,-0.035 0.591,-0.593 0.294,0 -0.593,0.593 -0.292,0 z m 98.533,-0.524 c 0,-0.405 0.599,-0.803 1.802,-1.205 l 0,0 0,0.3 c 0,0.402 -0.603,0.799 -1.802,1.21 l 0,0 0,-0.305 z m -93.8,-0.359 0.593,0 0,0.291 -0.593,0 0,-0.291 z m 6.215,-0.598 0.293,0 0,0.598 -0.293,0 0,-0.598 z m -5.029,0.301 0.589,0 0,0.297 -0.589,0 0,-0.297 z m -7.4,0.297 0.296,-0.895 0.592,0 0,0.895 -0.888,0 z m -2.071,-0.598 0.593,-0.589 0.294,0 -0.294,1.187 -0.593,-0.598 z m 4.437,-0.297 0.595,0 -0.595,0.598 0,-0.598 z m -5.327,-0.292 0,-0.297 0.595,0 0,0.886 -0.595,-0.589 z m 14.797,-0.297 0.296,0 0,0.589 -0.296,0 0,-0.589 z m -7.989,0.589 0.593,-0.589 0,0.589 -0.593,0 z m -0.886,-0.589 0.294,-0.296 0.592,0.593 -0.886,0.292 0,-0.589 z m -2.961,0 0,-0.296 0.888,-0.296 0,0.592 -0.888,0 z m -1.478,0 0,-0.592 -1.483,0.296 0,-0.296 0.595,-0.593 1.182,0 0,1.185 -0.294,0 z m 102.695,-0.864 -0.301,-0.303 0,-0.299 0.301,0 0.599,0.602 -0.599,0.146 0,-0.146 z m 0.599,0 0.925,-0.233 c -0.008,0.074 -0.024,0.143 -0.024,0.233 l 0,0 -0.901,0 z m -105.66,-0.321 0.588,0 0,0.301 -0.588,0 0,-0.301 z m 107.166,-0.585 0.296,0 0,0.304 -0.596,0 0.238,0.239 -0.519,0.13 c 0.049,-0.437 0.234,-0.673 0.581,-0.673 m -109.83,-0.301 0.588,0 0,0.59 -0.588,0 0,-0.59 z m 108.324,0.002 0.602,0 0,0.3 -0.602,0 0,-0.3 z m -0.9,-0.305 0.6,0 0,0.304 -0.6,0 0,-0.304 z m -87.598,-0.288 0.589,0 0,0.293 -0.589,0 0,-0.293 z m -3.258,0 c -0.59,0 -0.886,-0.199 -0.886,-0.593 l 0,0 1.184,0.294 0,0.299 -0.298,0 z m -4.143,0 0,-0.889 0.594,0 -0.297,0.889 -0.297,0 z m -3.845,-0.889 1.479,-0.887 0,0.887 -1.479,0.59 0,-0.59 z m 10.651,-0.592 0.887,0 0,0.295 -0.292,0.297 -0.595,-0.592 z m -37.282,0.295 -0.298,-0.295 1.184,0.295 -0.886,0 z m 28.999,-0.885 -0.297,0 -0.296,0.295 0,-0.592 0.296,-0.298 c 0.987,0.149 1.479,0.445 1.479,0.89 l 0,0 -1.182,-0.295 z m -26.337,-0.297 0.593,0 -0.593,0.592 0,-0.592 z m 36.989,-0.298 0.296,0 0,0.595 -0.296,0 0,-0.595 z m -6.805,0.298 0,-1.481 0.293,0 0.298,0.297 -0.298,1.184 -0.293,0 z m 6.805,-0.888 0.591,0 0,0.297 -0.591,0 0,-0.297 z m -11.541,-0.593 0.592,0 -0.592,0.593 0,-0.593 z m 10.355,-1.773 0.592,0 0,0.292 -0.592,0.596 0,-0.888 z m -2.07,0.292 0.296,-0.885 0.887,0 -0.887,0.885 -0.296,0 z m -10.948,-1.477 0,-0.297 0.885,-0.296 0.593,0.593 -1.478,0 z m -3.849,-1.182 0.89,-0.889 0,1.185 -0.89,0.293 0,-0.589 z m 1.187,-1.777 0.59,0 0,0.293 -0.59,0 0,-0.293 z"
         id="path30" />
    </clipPath>
    <linearGradient
       x1="0"
       y1="0"
       x2="1"
       y2="0"
       gradientUnits="userSpaceOnUse"
       gradientTransform="matrix(0,129.68213,129.68213,0,426.58008,903.41211)"
       spreadMethod="pad"
       id="linearGradient36">
      <stop
         style="stop-opacity:1;stop-color:#f37636"
         offset="0"
         id="stop38" />
      <stop
         style="stop-opacity:1;stop-color:#893031"
         offset="1"
         id="stop40" />
    </linearGradient>
    <clipPath
       clipPathUnits="userSpaceOnUse"
       id="clipPath16">
      <path
         inkscape:connector-curvature="0"
         d="m 0,1224 792,0 L 792,0 0,0 0,1224 z"
         id="path18" />
    </clipPath>
  </defs>
  <sodipodi:namedview
     id="base"
     pagecolor="#ffffff"
     bordercolor="#666666"
     borderopacity="1.0"
     inkscape:pageopacity="0.0"
     inkscape:pageshadow="2"
     inkscape:zoom="0.98994949"
     inkscape:cx="236.19413"
     inkscape:cy="48.863549"
     inkscape:document-units="px"
     inkscape:current-layer="layer1"
     showgrid="false"
     fit-margin-top="0"
     fit-margin-left="0"
     fit-margin-right="0"
     fit-margin-bottom="0"
     inkscape:window-width="1855"
     inkscape:window-height="1056"
     inkscape:window-x="65"
     inkscape:window-y="24"
     inkscape:window-maximized="1" />
  <metadata
     id="metadata3534">
    <rdf:RDF>
      <cc:Work
         rdf:about="">
        <dc:format>image/svg+xml</dc:format>
        <dc:type
           rdf:resource="http://purl.org/dc/dcmitype/StillImage" />
        <dc:title></dc:title>
      </cc:Work>
    </rdf:RDF>
  </metadata>
  <g
     inkscape:label="Layer 1"
     inkscape:groupmode="layer"
     id="layer1"
     transform="translate(-88.85696,-385.5293)">
    <g
       transform="matrix(1.25,0,0,-1.25,-164.93929,1726.1743)"
       id="g12">
      <g
         id="g14"
         clip-path="url(#clipPath16)">
        <g
           id="g20"
           transform="translate(269.8936,960.8506)">
          <path
             inkscape:connector-curvature="0"
             d="m 0,0 c 0,-1.084 -0.877,-1.96 -1.961,-1.96 -1.08,0 -1.958,0.876 -1.958,1.96 l 0,1.502 c 0,1.084 0.878,1.961 1.958,1.961 C -0.877,3.463 0,2.586 0,1.502 L 0,0 z"
             style="fill:#ffffff;fill-opacity:1;fill-rule:nonzero;stroke:none"
             id="path22" />
        </g>
      </g>
    </g>
    <g
       transform="matrix(1.25,0,0,-1.25,-164.93929,1726.1743)"
       id="g24">
      <g
         id="g26"
         clip-path="url(#clipPath28)">
        <g
           id="g32">
          <g
             id="g34">
            <path
               inkscape:connector-curvature="0"
               d="m 203.037,1000.218 c 0,-2.115 1.174,-2.58 1.407,-2.58 l 0,0 c 7.752,7.042 18.083,16.198 39.215,16.198 l 0,0 c 5.693,0 10.541,-0.346 14.631,-0.958 l 0,0 c -0.364,0.48 -0.814,0.882 -1.363,1.154 l 0,0 c 1.551,1.379 2.882,4.412 0.568,6.678 l 0,0 c 2.794,0.907 3.621,4.218 2.681,5.664 l 0,0 c 2.631,0.45 4.456,2.334 4.051,4.847 l 0,0 c 0.937,-0.012 1.621,0.292 2.123,0.744 l 0,0 c -2.24,0.289 -4.486,0.532 -6.735,0.718 l 0,0 c -3.237,-1.508 -6.476,-3.709 -8.618,-5.345 l 0,0 c -0.423,-0.29 -0.508,-1.105 -0.828,-1.641 l 0,0 c -0.139,-0.229 -0.674,-0.449 -0.935,-0.35 l 0,0 c -1.656,0.625 -3.397,2.727 -3.535,3.097 l 0,0 c -0.058,0.157 1.04,1.256 1.297,1.106 l 0,0 c 0.24,-0.138 0.672,-0.349 0.92,-0.323 l 0,0 c 0.768,0.089 2.585,1.338 3.777,2.371 l 0,0 c 0.626,0.541 0.773,1.058 0.735,1.469 l 0,0 c -0.733,0.015 -1.464,0.027 -2.195,0.027 l 0,0 c -29.116,0 -47.196,-25.36 -47.196,-32.876 m 118.582,22.073 c -5.747,0 -12.838,1.286 -20.754,2.967 l 0,0 c -1.562,-1.507 -7.835,-0.167 -7.317,-2.097 l 0,0 c -3.1,0.417 -2.562,0.054 -3.276,-2.643 l 0,0 c -0.396,0.216 -0.714,-0.276 -0.933,-0.769 l 0,0 c -0.254,-0.573 -0.376,-1.145 -0.334,-0.604 l 0,0 c -1.526,-1.663 -1.586,-9.502 -4.997,-14.713 l 0,0 c 1.586,-1.326 3.329,-2.739 5.022,-4.24 l 0,0 c 0.263,6.114 1.631,8.011 3.94,8.011 l 0,0 c 3.053,0 12.446,-5.635 26.298,-5.635 l 0,0 c 22.779,0 34.99,13.851 34.99,21.133 l 0,0 c 0,1.879 -1.174,2.817 -3.757,2.817 l 0,0 c -5.635,0 -11.038,-4.227 -28.882,-4.227 m 95.098,-1.165 -21.238,-28.444 c -0.37,-0.371 -0.555,-0.735 -0.555,-1.291 l 0,0 c 0,-1.108 0.737,-1.847 1.847,-1.847 l 0,0 5.726,0 c 1.109,0 1.845,-0.741 1.845,-1.849 l 0,0 0,-56.515 c 0,-5.723 -2.954,-7.57 -4.248,-8.309 l 0,0 -1.66,-1.108 c -0.738,-0.552 -1.109,-1.292 -1.109,-2.212 l 0,0 c 0,-1.11 0.551,-2.033 1.478,-2.404 l 0,0 13.851,-6.647 c 0.738,-0.371 1.106,-0.74 2.032,-0.74 l 0,0 c 0.74,0 1.476,0.369 2.031,0.74 l 0,0 19.761,16.99 c 1.109,0.922 1.847,1.846 1.109,2.77 l 0,0 -0.444,0.551 c 0.691,0.3 1.038,0.605 1.038,0.91 l 0,0 c -0.104,0.722 -0.233,1.25 -0.392,1.603 l 0,0 0.996,-0.252 0,0.754 -0.301,0 -0.303,-0.3 -0.299,1.202 -0.3,0 c 0,-0.6 -0.303,-0.902 -0.906,-0.902 l 0,0 0,0.902 0.302,0.3 -0.302,0 -0.295,0.305 -0.303,0 -0.298,-1.507 1.499,-0.377 0,0.377 c 0.194,0 0.364,-0.174 0.51,-0.502 l 0,0 -0.51,0.125 0,-0.523 0.303,-0.303 0,-0.299 -0.604,0 c 0,0.801 -0.302,1.201 -0.9,1.201 l 0,0 0,-0.599 0.116,-0.93 -0.085,0.111 c -1.109,1.291 -2.584,-0.184 -3.696,-0.927 l 0,0 -4.06,-3.137 c -0.74,-0.553 -1.292,-0.74 -1.664,-0.74 l 0,0 c -0.552,0 -1.292,0.187 -2.215,0.74 l 0,0 -6.282,3.327 c -1.475,0.737 -1.106,2.583 -0.551,4.982 l 0,0 9.234,44.88 c 0.555,2.401 1.663,4.065 2.216,4.988 l 0,0 c 0.554,0.921 1.106,1.661 2.218,2.402 l 0,0 c 0.921,0.551 2.216,1.474 3.691,2.399 l 0,0 c 1.292,0.926 2.956,1.29 4.615,1.29 l 0,0 c 2.405,0 3.512,1.295 3.512,3.697 l 0,0 c 0,1.107 -0.738,0.921 -3.693,0.921 l 0,0 -9.42,0 c -4.983,0 -9.048,4.065 -9.048,9.238 l 0,0 0,13.481 c 0,1.292 -1.109,2.4 -2.401,2.4 l 0,0 c -0.741,0 -1.479,-0.367 -1.848,-0.922 m 35.172,-23.58 c 0,-1.436 0.793,-1.755 0.955,-1.755 l 0,0 c 5.262,4.787 12.279,11.001 26.628,11.001 l 0,0 c 18.018,0 23.6,-5.099 22.485,-9.727 l 0,0 -11.002,-46.879 c -1.434,-5.893 -0.322,-6.855 2.709,-5.739 l 0,0 c 3.352,1.274 14.033,5.418 15.153,5.418 l 0,0 c 1.113,0 1.27,2.715 1.27,3.828 l 0,0 0.161,42.26 c 0,5.417 0.955,7.016 2.713,7.016 l 0,0 c 2.07,0 8.451,-3.83 17.855,-3.83 l 0,0 c 15.468,0 23.761,9.411 23.761,14.351 l 0,0 c 0,1.276 -0.799,1.915 -2.548,1.915 l 0,0 c -3.833,0 -7.496,-2.874 -19.615,-2.874 l 0,0 c -11.326,0 -30.298,7.337 -48.475,7.337 l 0,0 c -19.772,0 -32.05,-17.219 -32.05,-22.322 m -81.254,13.98 c -6.142,0 -9.909,-1.19 -11.293,-3.567 l 0,0 c 0.592,0 0.888,-0.199 0.888,-0.595 l 0,0 0.598,0.595 0.295,-0.296 c 3.273,1.188 6.243,1.782 8.919,1.782 l 0,0 c 2.579,0 4.858,-0.296 6.837,-0.891 l 0,0 c 6.937,-2.081 10.407,-6.045 10.407,-11.89 l 0,0 c 0,-1.986 -0.497,-3.568 -1.489,-4.76 l 0,0 c -2.083,-1.782 -4.26,-2.674 -6.539,-2.674 l 0,0 c -5.252,0 -9.216,1.883 -11.892,5.648 l 0,0 c -4.113,-5.153 -6.687,-7.728 -7.729,-7.728 l 0,0 c -7.927,-6.692 -11.889,-10.359 -11.889,-10.999 l 0,0 c -2.777,-2.38 -4.162,-5.153 -4.162,-8.327 l 0,0 0,-2.379 c 1.832,-4.706 3.813,-7.38 5.944,-8.027 l 0,0 0,-0.294 -0.296,-0.296 1.781,-0.598 -0.296,-0.296 2.38,-2.082 c 0,-1.089 -0.598,-2.676 -1.788,-4.753 l 0,0 0.299,0 0,-0.594 -0.299,0 0,0.594 -0.296,0 c -0.145,-0.996 -0.446,-1.49 -0.89,-1.49 l 0,0 0,-0.297 0.296,-0.294 c -0.545,0 -1.042,-0.594 -1.488,-1.788 l 0,0 0.597,-0.889 c 0,-0.796 -0.396,-1.29 -1.19,-1.486 l 0,0 -0.891,0.594 0.299,-0.894 -2.676,-2.675 0.594,0 0,-0.593 5.645,-0.297 0.894,0 c 0,0.495 0.394,0.792 1.187,0.89 l 0,0 0.299,-0.89 c 3.073,0 8.127,-1.688 15.161,-5.055 l 0,0 0.299,0.893 1.187,-0.299 0.297,0 0.3,0.299 0,-0.893 -1.488,-0.298 0,-0.297 c 1.387,-0.393 2.081,-0.792 2.081,-1.189 l 0,0 4.459,5.054 c 11.495,10.998 17.243,17.147 17.243,18.434 l 0,0 -0.296,0 -0.296,0.295 0,0.296 c 1.189,0.147 1.781,1.536 1.781,4.162 l 0,0 -0.296,0.299 0.593,0 c 0,2.977 -0.693,5.648 -2.078,8.027 l 0,0 c -3.373,4.359 -6.542,6.539 -9.516,6.539 l 0,0 -0.298,0 1.19,2.381 c 5.151,3.417 7.73,7.678 7.73,12.782 l 0,0 0,1.783 -0.593,0 0,0.893 0.295,0 c 0,4.506 -1.091,8.272 -3.271,11.293 l 0,0 c -3.47,3.419 -8.026,5.699 -13.674,6.841 l 0,0 -0.298,0 -0.297,-0.299 c 0,0.347 -0.693,0.546 -2.08,0.595 l 0,0 -1.191,0 z m -8.322,-44.596 0.296,0.303 c -4.359,2.475 -6.539,5.844 -6.539,10.105 l 0,0 c 0.247,1.931 0.842,3.814 1.782,5.65 l 0,0 c 6.096,-5.549 11.841,-8.326 17.244,-8.326 l 0,0 4.162,0.595 c 0,0.398 -0.298,0.6 -0.893,0.6 l 0,0 -0.297,0.294 c 0,0.542 -0.694,1.439 -2.081,2.673 l 0,0 2.081,0.297 0.594,0 0.298,-0.297 -0.298,-0.295 0,-0.297 c 1.386,-1.638 2.082,-2.727 2.082,-3.271 l 0,0 0.298,0 0.297,0.296 0.297,0 1.188,-1.783 -0.891,0 c 0,0.794 -0.297,1.188 -0.891,1.188 l 0,0 -0.595,0 c -3.817,-5.944 -7.978,-8.916 -12.487,-8.916 l 0,0 c -2.132,0.195 -3.814,0.593 -5.053,1.184 l 0,0 -0.298,0 -0.296,-0.291 0,0.291 z m -7.134,11.599 0,0.592 0.891,0 0,-0.889 -0.296,-0.298 -0.595,0.595 z m -1.787,-1.785 0.299,0 0,-0.593 -0.891,0 0.592,0.593 z m 0.896,-2.082 0.592,0 -0.592,-0.595 0,0.595 z m -8.918,-1.783 0.592,0 -0.592,-0.593 0,0.593 z m 38.344,-0.297 0.597,-0.592 -0.597,0 0,0.592 z m -31.509,-0.296 0.296,0 0,-0.597 -0.296,0 0,0.597 z m -5.648,-2.379 0,-0.593 -0.595,0 0.595,0.593 z m 6.243,-1.189 0.299,0.299 1.189,-2.087 c -1.189,-0.791 -2.083,-1.184 -2.678,-1.184 l 0,0 -0.299,0 c -0.296,0 -0.592,0.393 -0.89,1.184 l 0,0 c 0,0.7 0.399,1.393 1.189,2.087 l 0,0 0.891,-0.299 0.299,0 z m 37.161,-1.788 0.591,0 0,-0.591 -0.591,0 0,0.591 z m -45.186,-2.376 0,0.595 0.891,0.893 0.891,0 0.892,-0.597 c 0,-0.791 -0.396,-1.388 -1.187,-1.777 l 0,0 -0.596,0 -0.891,0.886 z m 48.455,0.891 0.296,0 0,-0.592 -0.296,0 0,0.592 z m -31.512,-0.296 0,-0.595 -0.595,0 0.595,0.595 z m 24.972,-0.595 0.596,0 0,-0.594 -0.596,0 0,0.594 z m -36.862,-0.594 0.593,0.594 c 0.298,0 0.594,-0.395 0.89,-1.187 l 0,0 0,-0.3 -1.483,0 0,0.893 z m -2.676,0 0.298,0 0,-0.593 -0.298,0 0,0.593 z m 8.918,-12.484 c 0,0.99 -0.199,1.487 -0.593,1.487 l 0,0 c 4.258,6.934 9.215,10.404 14.861,10.404 l 0,0 0.297,0 2.378,-0.3 c 5.748,-2.225 8.623,-5.397 8.623,-9.512 l 0,0 0,-2.674 c 0,-1.737 -0.495,-3.618 -1.487,-5.651 l 0,0 c -0.992,0 -1.487,0.204 -1.487,0.596 l 0,0 c -9.064,4.557 -16.003,6.84 -20.81,6.84 l 0,0 -0.296,0 0,-0.299 0.296,-0.297 0,-0.3 c 0,-0.294 -0.398,-0.594 -1.19,-0.889 l 0,0 -0.592,0.595 z m 37.757,10.701 0.296,0 0,-0.597 -0.296,0 0,0.597 z m -2.676,0 0.593,0 0,-0.597 -0.593,0 0,0.597 z m -44.298,-1.189 0,0.298 0.596,0.591 0.299,0 0.592,-0.591 0,-0.595 -1.487,0.297 z m 9.515,0.593 0.593,-0.593 -0.593,0 0,0.593 z m 35.973,-0.89 0.593,0.595 0.592,-0.595 -0.592,-0.595 -0.593,0.595 z m -35.679,0 0.597,0 0,-0.595 -0.597,0.595 z m -9.809,-0.299 0.596,0 0,-0.593 -0.596,0.593 z m 8.027,-0.894 0.299,-1.483 0,-2.081 -0.299,-0.295 c -1.385,0.392 -2.08,0.888 -2.08,1.485 l 0,0 -0.299,0 c 0,-0.597 -0.296,-0.894 -0.891,-0.894 l 0,0 -0.299,0 0,0.598 0.595,0.59 0.299,0 0.296,-0.294 c 0,1.335 0.795,2.131 2.379,2.374 m -3.865,-0.592 0.296,0 0,-0.596 -0.296,0 0,0.596 z m 35.377,-0.596 0,0.3 0.598,0 0.589,-0.595 0,-0.294 -0.589,0 -0.598,0.589 z m 5.352,-0.295 0,0.295 0.894,0 0.296,-0.295 -0.593,-0.597 -0.597,0.597 z m -6.541,-0.597 0.298,0 0.595,-0.59 -0.893,0 0,0.59 z m 3.569,-0.294 0.594,0 0.295,-0.296 -0.592,-0.598 -0.297,0 0,0.894 z m 1.189,-0.597 0.591,-0.593 0,-0.295 -0.591,0 0,0.888 z m -2.675,-1.189 0.293,0 0,-0.592 -0.889,0 0.596,0.592 z m -1.785,-0.889 0.296,0 0,-1.194 -0.594,0 0.298,1.194 z m -1.787,-0.301 0.3,0 0,-0.593 -0.3,0 0,0.593 z m 4.461,-0.893 0.597,0 0,-0.292 -0.597,0 0,0.292 z m -3.567,-2.374 0.595,0 0,-0.301 -0.595,0 0,0.301 z m -28.834,-1.486 0.595,0 0,-0.296 -0.595,0 0,0.296 z m 2.674,-0.89 0,-0.598 -0.596,0 0.596,0.598 z m -6.838,-4.46 0.296,1.185 -0.296,1.194 0.595,0.594 0.894,0 0.293,-0.895 0,-0.297 c -0.793,-0.742 -1.187,-1.437 -1.187,-2.081 l 0,0 -0.299,0 -0.296,0.3 z m 3.27,2.669 1.19,0 0.298,-0.29 -0.891,-0.894 -0.597,0 0,1.184 z m 7.137,-2.373 0,0.301 0.592,0.588 0.595,0 0.296,-0.889 -0.891,-0.596 -0.592,0.596 z m 19.322,0.301 0.297,0.293 0.595,-0.594 -0.892,0 0,0.301 z m -25.269,0 0.298,0.293 0.593,-0.594 0,-0.596 -0.891,0 0,0.897 z m 1.486,0 0.594,0 0,-0.597 -0.594,0 0,0.597 z m -2.972,-0.301 0.296,0 0,-0.597 -0.296,0 0,0.597 z m 21.403,-0.596 0.594,0 0,-0.295 -0.594,0 0,0.295 z m -25.566,-1.783 0.594,0.893 0.891,-0.893 0,-0.298 -1.485,-0.299 0,0.597 z m -1.187,0.593 0.594,0 0,-0.593 -0.241,0 0.113,0.114 -0.296,0 -0.113,-0.114 -0.057,0 0,0.593 z m 24.08,-0.292 0.592,0 0,-0.301 -0.592,0 0,0.301 z m -14.866,0 0.293,0 0,-0.599 -0.293,0 0,0.599 z m 3.569,-0.599 0.592,0 0,-0.299 -0.592,0 0,0.299 z m -13.974,-0.299 0,0.299 0.297,0 0.297,-0.299 0,-0.295 -0.297,0 -0.297,0.295 z m 20.809,0 0.595,0 0,-0.59 -0.595,0.59 z m -11.891,0 0.299,0 0,-0.589 -0.299,0 0,0.589 z m -5.65,-1.189 c 0,0.346 0.497,0.648 1.489,0.894 l 0,0 0,-0.295 -0.894,-0.895 -0.296,0 -0.299,0.296 z m -4.458,0.894 0.596,0 0,-0.593 -0.596,0.593 z m 7.731,-1.19 0.296,0.895 0.597,0 0,-0.895 -0.298,-0.296 -0.299,0 -0.296,0.296 z m 7.134,0.597 0.299,0 0,-0.597 -0.299,0 0,0.597 z m -0.89,-1.19 0.295,0 0,-0.592 -0.295,0 0,0.592 z m 12.185,-0.297 0.301,0 0,-0.595 -0.301,0 0,0.595 z m -13.972,68.969 c -1.782,-1.537 -2.673,-3.222 -2.673,-5.052 l 0,0 0,-0.893 c 0,-2.776 2.178,-4.56 6.539,-5.35 l 0,0 c 3.664,0 5.747,1.385 6.244,4.159 l 0,0 0,0.894 c 0,1.19 -0.597,1.782 -1.785,1.782 l 0,0 -0.892,0 -0.296,-0.89 1.485,-2.38 c 0,-1.439 -1.288,-2.329 -3.864,-2.677 l 0,0 -1.19,0 c -2.774,0 -4.359,1.587 -4.757,4.759 l 0,0 0,0.298 c 0,1.535 0.496,2.723 1.49,3.568 l 0,0 0,0.296 -0.301,0.295 0,0.895 0.301,0.296 -0.301,0 z m 91.777,-21.771 c -9.428,-2.756 -14.142,-6.071 -14.142,-9.928 l 0,0 0,-30.697 c 0,-3.207 1.103,-6.223 3.311,-9.032 l 0,0 0,-1.503 0.603,-0.6 0.3,0 0,0.905 -0.605,0 0,0.605 1.803,-1.51 0,-0.602 -0.3,0 0,0.602 -0.602,0 c 0.404,-0.903 0.8,-1.404 1.208,-1.506 l 0,0 -0.606,-0.598 c -0.496,1.405 -1.198,2.104 -2.103,2.104 l 0,0 0,-0.3 -0.601,0 0,-0.302 0.903,0 c 0,-0.603 0.298,-0.9 0.903,-0.9 l 0,0 0,-0.303 -0.062,-0.06 3.371,-0.842 0.299,0 0.302,-0.305 0.298,0 0,0.305 -0.298,0.299 1.809,0.603 0.297,-0.299 0.602,0 0,0.299 c 8.523,6.717 14.037,10.732 16.545,12.035 l 0,0 0.301,0 0,-0.901 c 0,-2.155 2.009,-5.062 6.021,-8.729 l 0,0 1.202,0.605 0,-0.605 -0.606,0 2.709,-2.704 3.01,2.404 -0.604,0.905 0,0.898 0.905,-0.297 0,-0.601 -0.301,-0.3 0.301,0 0.304,-0.305 c 0.297,0 0.598,0.402 0.898,1.206 l 0,0 -0.3,0 c 0,0.504 0.798,1.003 2.405,1.502 l 0,0 0,0.903 -0.3,0.302 0.3,0 -0.597,0.903 0,0.3 0.297,0 0.3,-0.3 0.302,0 0,0.3 -0.602,0.905 0.602,0 0,-0.601 0.602,0 0.603,0.601 0,0.6 -1.205,0 0,0.604 0.901,0 c 0.651,0 1.358,0.302 2.107,0.898 l 0,0 0,0.305 -0.302,0.297 0.302,0 0.901,-0.602 -0.3,-0.898 0,-0.303 0.3,-0.301 -1.203,0 0,-0.299 0.302,-0.301 0,-0.301 -2.107,-0.3 c 0,-0.604 -0.299,-0.909 -0.901,-0.909 l 0,0 0,-1.803 1.504,0.903 0,0.302 -0.299,0.301 0,0.297 0.299,0 0.302,-0.297 0.596,0 0,0.297 -0.299,0.305 c 0.75,0 1.356,0.397 1.806,1.205 l 0,0 c 0.401,0 0.6,0.398 0.6,1.204 l 0,0 0.603,1.203 0.303,-0.305 1.802,1.206 0,0.301 -0.299,0.309 -2.409,-0.61 0,0.301 -0.299,-0.301 -0.301,0 -0.3,0.301 -0.601,0 -0.302,-0.301 0,0.301 0.302,0.309 -1.504,0.896 0,-0.896 -0.603,0 0,0.292 0.603,0.604 -0.603,1.807 -0.299,0.303 -0.306,-0.303 -0.598,0 0,-0.297 0.904,-0.305 -0.602,-0.603 -1.504,0 0,0.303 -1.203,1.8 0.601,0 0,0.307 -0.301,0.299 0.6,0 0.605,-1.504 -0.302,-0.297 1.504,0.6 0.296,0 -0.296,0.902 0.296,1.201 -0.296,0.906 0.602,0 0,3.605 -0.306,0.305 0.306,0.3 0,4.814 -0.904,0.299 -0.597,-0.599 -0.908,0.3 -0.9,-0.3 -0.902,0.3 0,0.3 0.601,0.605 0.301,0 0.9,-0.605 c 1.153,0.654 1.953,1.358 2.409,2.108 l 0,0 0,13.241 c 0.397,3.211 1.707,4.818 3.907,4.818 l 0,0 2.108,0 0.6,0.598 0,1.204 c -9.531,2.56 -16.846,6.672 -21.962,12.34 l 0,0 -0.297,0.3 c -4.709,-3.661 -9.627,-6.57 -14.74,-8.727 m 2.714,-16.253 0,0.605 -1.515,0.601 0,0.3 c 1.007,0 1.515,0.3 1.515,0.904 l 0,0 0,12.342 3.905,-3.616 6.011,-3.606 0,-7.225 c 0.806,-0.103 1.207,-0.402 1.207,-0.902 l 0,0 0,-0.304 -0.301,0 -0.301,0.304 -0.605,-0.601 0,-0.304 0.302,-0.3 -0.302,-0.301 0,-10.834 0.302,-0.301 -0.302,-0.299 0,-0.305 0.906,0 0,-0.901 -0.906,0 0,-8.424 c -3.657,-2.06 -6.064,-3.16 -7.222,-3.312 l 0,0 c -0.898,0 -1.695,0.703 -2.406,2.108 l 0,0 0,0.299 0.608,0 0,0.301 c -0.608,0 -0.896,0.203 -0.896,0.604 l 0,0 0,2.107 0.593,0 0,-0.605 0.303,0 0.301,0.298 0.3,0 0.3,-0.298 0,0.904 -0.6,0 0.3,0.301 -0.904,0.902 -0.305,0 -0.288,-0.301 0,0.602 0.288,0.301 -0.288,0.3 0,0.3 0.288,0.305 -0.288,0.3 0,4.214 -0.309,1.502 0.309,0.303 0,0.301 -0.309,0.298 0.309,0.304 0,3.011 -1.515,-0.304 0,0.605 1.515,0.296 0,6.32 -1.212,-0.601 c -1.605,0 -2.407,-0.601 -2.407,-1.808 l 0,0 -0.903,0.605 c 0.602,0.602 0.903,1.304 0.903,2.105 l 0,0 1.503,-0.303 c 0.601,0.603 1.306,0.903 2.116,0.903 m 23.763,11.739 0.297,0 0,-0.603 -0.297,0 0,0.603 z m -2.108,-2.706 1.201,0.3 0,-0.602 -0.608,0 0.306,-0.303 0,-0.302 -0.899,0.907 z m -0.298,-1.204 0.599,0 0,-0.3 -0.599,0 0,0.3 z m -5.12,-4.516 0,0.304 1.202,0.297 -0.296,0.303 0,0.303 0.902,-0.903 c -0.606,0 -0.902,-0.205 -0.902,-0.605 l 0,0 -0.906,0.301 z m 2.403,0.304 0.607,-0.605 -0.607,0 0,0.605 z m -5.714,-3.312 0.303,1.206 0.296,0 0.607,-0.606 0,-0.3 -0.607,-0.601 -0.296,0 -0.303,0.301 z m 2.105,1.201 0.604,-0.601 -0.604,0 0,0.601 z m -3.908,-0.901 0.609,0 0,-0.3 -0.609,0 0,0.3 z m -16.546,-2.107 0.303,0 0,-0.3 -0.601,-0.602 -0.603,0 0.901,0.902 z m 29.186,-3.008 0.598,0 0,-0.301 -0.598,0 0,0.301 z m -28.584,-0.304 0.299,0 -0.299,-1.502 -0.602,0 0.602,1.502 z m -3.911,-2.407 0.602,0 0,0.309 c 0,0.393 -0.304,0.596 -0.904,0.596 l 0,0 c 0.204,0.802 0.8,1.202 1.807,1.202 l 0,0 0.304,0 0.297,-0.302 c 0,-0.597 -0.403,-0.9 -1.201,-0.9 l 0,0 0,-0.298 0.6,0 0,-0.308 c -0.6,0 -0.903,-0.198 -0.903,-0.595 l 0,0 -0.602,0 0,0.296 z m 3.309,-1.803 0.303,0 -0.601,-0.605 -0.303,0 0.601,0.605 z m 18.948,-1.805 0.309,0.299 1.197,0.305 0.604,0.596 0,-0.901 -1.202,-0.6 -0.908,0 0,0.301 z m -24.064,0.6 0.301,0 -0.597,-0.6 -0.303,0 0.599,0.6 z m 2.409,-1.856 -0.304,1.507 0,0.3 0.607,0 0,-0.603 -0.303,-0.302 0.903,-0.302 0,-0.6 -1.207,-0.295 0.304,0.295 z m -2.108,0.955 0.609,0 0,-0.302 -0.609,0 0,0.302 z m -1.802,-1.502 0.902,0 1.805,0.597 0,-0.296 0.299,-0.301 -0.595,-0.905 -0.304,0 -0.305,0.303 -0.301,0 -0.599,-0.604 c 0,-1.205 -0.204,-1.806 -0.606,-1.806 l 0,0 -0.602,0 0.306,3.012 z m 27.071,-0.905 1.506,0 0,-0.305 -1.506,0 0,0.305 z m 1.505,-1.506 0.903,0.9 -0.296,-1.205 -0.607,0 0,0.305 z m 5.712,-4.511 c 0,2.004 0.406,3.008 1.211,3.008 l 0,0 0,0.301 -0.301,0.3 0,0.902 1.503,0 0.6,-0.601 -1.498,-0.301 0,-0.3 0.297,-0.301 0.902,0.301 c 0.602,-0.454 0.904,-0.957 0.904,-1.506 l 0,0 0.6,0 0,0.603 0.602,0 0,-0.603 c -0.507,0 -0.806,-0.403 -0.899,-1.202 l 0,0 -0.908,0.603 -1.201,-0.907 0,0.304 0.902,1.202 c 0,0.398 -0.601,0.703 -1.804,0.896 l 0,0 0,-0.896 0.605,0 0,-0.3 -0.605,0 -0.302,0.3 0,-0.3 c 0,-0.408 0.302,-0.605 0.907,-0.605 l 0,0 0,-0.601 c -0.81,0 -1.209,-0.2 -1.209,-0.602 l 0,0 -0.306,0 0,0.305 z m -9.019,4.206 0.903,0.305 0,-0.305 -0.298,-0.296 -0.605,0 0,0.296 z m 13.237,-0.597 0,0.301 0.602,0 0,-0.902 -0.602,0.601 z m -26.466,-4.214 0.289,0 0,-0.602 -0.289,0 0,0.602 z m 26.766,-4.517 0.302,0 0.602,-0.601 -0.904,-0.301 0,0.902 z m -2.706,-0.601 1.201,0.309 0,-0.309 0.303,-0.301 -1.504,0 0,0.301 z m -1.204,0 0.603,-0.601 0,-0.601 -0.603,-0.601 -0.302,0 0.302,1.803 z m 2.708,-2.708 0.605,0 0,-0.301 -0.605,0 0,0.301 z m -1.504,0 0.301,0 0,-0.6 -0.902,0 0.601,0.6 z m -0.601,-2.708 0,-0.603 -0.603,0 0.603,0.603 z m -30.382,-5.717 0.599,0 0,-0.302 -0.599,0 0,0.302 z m -1.207,0 0.6,0 0,-0.302 -0.6,0 0,0.302 z m 134.072,59.343 -13.057,-6.528 c -4.098,-0.456 -4.248,-5.163 -4.248,-6.982 l 0,0 0.452,-32.8 c 0,-3.79 -0.452,-6.22 -1.52,-7.437 l 0,0 c -1.06,-1.21 -1.973,-1.819 -2.728,-1.819 l 0,0 c -0.609,0 -0.915,-0.302 -0.915,-1.064 l 0,0 c 0,-1.062 0.46,-1.822 1.216,-1.972 l 0,0 c 0.762,-0.155 1.517,-0.305 2.281,-0.305 l 0,0 2.426,0 c 4.16,0 7.142,-0.768 9.608,-1.818 l 0,0 c 0.05,-0.026 0.1,-0.045 0.148,-0.069 l 0,0 c 0.128,-0.056 0.248,-0.118 0.374,-0.174 l 0,0 c 3.457,-1.738 7.058,-4.145 10.782,-7.158 l 0,0 c 0.014,-0.015 0.03,-0.028 0.042,-0.041 l 0,0 c 0.416,-0.418 0.789,-0.763 1.137,-1.066 l 0,0 -6.865,-3.922 c -17.239,-9.755 -29.436,-14.637 -36.586,-14.637 l 0,0 -4.663,0.34 c -7.533,2.321 -11.309,5.432 -11.309,9.303 l 0,0 c 0.778,6.211 3.548,9.313 8.316,9.313 l 0,0 c 3.772,0 7.324,-0.775 10.647,-2.328 l 0,0 0.66,0.666 0,0.335 c 0,1.16 -3.099,1.935 -9.309,2.325 l 0,0 -1.331,0 -2.998,-0.333 c -4.654,-1.494 -6.98,-4.595 -6.98,-9.312 l 0,0 0,-1.326 0.329,-2.33 c 3.605,-5.541 9.591,-8.317 17.966,-8.317 l 0,0 3.324,0 c 7.983,0 21.731,5.771 41.247,17.295 l 0,0 c 14.084,9.094 26.277,13.637 35.928,13.637 l 0,0 2.992,0 c 14.413,-2.213 21.619,-6.318 21.619,-12.305 l 0,0 0,-0.335 c -2.047,-6.205 -7.484,-9.306 -16.298,-9.306 l 0,0 -1.665,0 c -10.201,0 -22.281,3.325 -36.254,9.972 l 0,0 -1.329,-0.331 0,-0.327 c 13.799,-7.098 26.217,-10.649 37.254,-10.649 l 0,0 1.328,0 c 12.416,0 18.628,3.884 18.628,11.642 l 0,0 -1.664,4.651 c -5.545,5.761 -13.971,8.648 -25.279,8.648 l 0,0 -4.323,0 -6.319,-0.663 -0.336,0 -12.268,-3.483 0,0.074 c 1.619,1.05 3.315,2.017 5.5,3.244 l 0,0 c 3.19,1.824 4.867,3.181 4.867,4.402 l 0,0 0,41.449 c 0,2.58 -1.371,3.947 -2.893,4.249 l 0,0 c -12.448,1.974 -20.798,7.438 -23.225,8.807 l 0,0 c -0.459,0.302 -1.062,0.453 -1.672,0.453 l 0,0 c -0.76,0 -1.214,-0.758 -3.037,-1.668 m 5.315,-57.543 -4.706,2.886 c -1.06,0.611 -1.822,1.823 -1.822,3.187 l 0,0 0.605,39.931 c 0,2.126 1.671,3.796 3.799,3.796 l 0,0 c 0.759,0 1.363,-0.151 1.977,-0.454 l 0,0 4.7,-2.888 c 1.063,-0.606 1.822,-1.82 1.822,-3.183 l 0,0 -0.605,-39.934 c 0,-2.127 -1.671,-3.795 -3.796,-3.795 l 0,0 c -0.758,0 -1.363,0.146 -1.974,0.454 m -253.437,58.534 -2.662,-0.885 0,-0.594 -0.59,0 -0.298,0.297 c -1.382,-0.693 -2.07,-1.382 -2.07,-2.073 l 0,0 -1.776,0.299 -13.612,-5.921 c -6.313,-2.81 -9.47,-9.615 -9.47,-20.418 l 0,0 0,-0.296 c 0,-9.913 1.776,-16.914 5.327,-21.01 l 0,0 -0.592,0 0,-0.59 0.888,0 0.297,0.297 c 0,-0.445 0.592,-1.332 1.774,-2.665 l 0,0 0.296,0 0.296,0.294 0.592,-0.59 0,-0.295 0.223,-0.768 -1.407,0.472 -0.886,0 1.182,-1.186 0.888,0 0.333,0.333 -0.11,0.381 0.369,-0.12 -0.259,-0.261 2.329,-8.025 2.071,-0.593 0,0.297 c 0.988,0 1.482,0.296 1.482,0.889 l 0,0 0.297,0 0.296,-0.299 0.592,0.593 -0.888,0 c 0.148,0.59 0.54,0.984 1.181,1.183 l 0,0 c 0,-0.786 0.495,-1.183 1.482,-1.183 l 0,0 0.592,0.59 1.182,-0.59 2.366,0.297 0.592,0 0,-0.297 -1.183,0 0,-0.294 -2.662,0 0,-0.299 1.479,-0.59 1.183,0.59 0,0.299 c 1.777,-0.151 2.665,-0.447 2.665,-0.889 l 0,0 0,-0.297 -2.665,0 0,-0.295 14.5,-5.035 3.847,0.597 0.296,-0.888 0.296,0 0.593,0.592 3.55,-0.301 2.958,0.301 0,0.296 -1.774,0.297 0,0.888 0.296,0.296 -0.592,0 -0.298,-0.296 0,-0.3 0.298,-0.296 0,-0.292 c -0.986,0.097 -1.478,0.394 -1.478,0.888 l 0,0 -0.297,-0.3 -2.663,0.596 0,0.295 0.293,0.294 -0.886,-0.294 c -4.735,1.577 -10.063,3.652 -15.981,6.213 l 0,0 -0.885,-0.593 -0.89,0 2.961,2.669 0.295,0 0,-0.297 -0.295,-0.301 0.885,0 0,0.598 0.297,0 0.298,-0.297 0.294,0 c 0,0.636 0.494,1.229 1.48,1.774 l 0,0 -0.296,0.294 3.849,3.255 c 2.313,1.28 6.161,4.342 11.541,9.175 l 0,0 0,0.296 -0.593,1.178 -0.296,0 c -3.65,-3.353 -7.103,-5.026 -10.355,-5.026 l 0,0 c -3.21,0 -6.07,0.789 -8.583,2.368 l 0,0 c 0,0.392 0.591,0.589 1.774,0.589 l 0,0 0,0.595 -0.592,0 -1.774,-0.595 c -0.84,0.985 -1.528,1.481 -2.073,1.481 l 0,0 0,1.477 0.295,0 0.296,-0.293 0.889,0 0,0.293 -0.297,0.301 0,0.297 0.297,0.29 -2.07,-0.587 c -0.642,0 -1.728,2.071 -3.256,6.213 l 0,0 3.256,1.773 0,0.299 -0.298,0.293 0,0.594 0.592,0 0,-0.887 2.665,1.478 0,0.592 -1.186,-0.296 -0.295,0 -0.297,0.296 -0.296,0 -0.295,-0.296 -0.296,0 0,0.593 1.479,0.292 0.297,0 0.297,-0.292 0.296,0 0.296,0.292 0.296,0 0.293,-0.292 c 0,0.589 0.199,0.885 0.593,0.885 l 0,0 0.296,0 0,-0.593 2.959,1.778 0,0.298 -0.296,0.295 0,0.292 0.296,0.301 1.481,-0.301 0,0.596 -0.296,0.295 0.885,0.293 0.888,-0.293 11.839,7.394 0,0.597 -2.368,3.847 -0.296,-0.298 -0.296,0 0.296,0.298 -9.767,15.384 -0.296,0 z m -0.885,-0.59 0.885,0.299 0,-0.299 0.296,-0.295 0,-0.297 -1.181,0 0,0.592 z m 1.181,-1.48 0.592,0 0,-0.593 -0.592,0.593 z m -2.07,0 0.593,0 0,-0.593 -0.593,0 0,0.593 z m 0.593,-1.774 0,0.295 0.592,0.593 0.297,0 0.887,-0.593 -0.299,-0.887 -0.885,0 -0.592,0.592 z m -2.071,-0.299 0.589,0 0,-0.589 -0.589,0 0,0.589 z m -0.595,-1.476 0,0.294 2.073,-0.294 0,-0.889 c -1.381,0.199 -2.073,0.493 -2.073,0.889 m -5.029,0 0,0.294 0.888,0 0,-0.886 -0.297,0 -0.591,0.592 z m 7.695,-0.889 0.592,0.591 0.297,-0.888 -0.297,0 -0.296,-0.295 -0.296,0 0,0.592 z m -9.47,0.591 0.592,-0.591 -0.592,0 0,0.591 z m 5.622,-0.294 0.592,0 0,-0.594 -0.592,0 0,0.594 z m 5.029,-0.297 0.595,0 0,-0.592 -0.595,0 0,0.592 z m 0.595,-0.592 c 0.786,0 1.183,-0.198 1.183,-0.591 l 0,0 0,-0.592 -0.297,-0.295 -0.296,0 -0.297,0.295 -0.293,0 0,-0.889 c -1.382,0.197 -2.073,0.494 -2.073,0.889 l 0,0 0,0.295 0.297,0.297 1.181,-0.592 0.595,1.183 z m -6.806,-1.478 0,0.59 0.886,0 0.888,-0.889 0.297,0 0.293,0.299 0.297,0 0.592,-0.594 0,-0.297 -1.479,0 c -0.641,0.592 -1.234,0.891 -1.774,0.891 m -7.4,-18.051 -0.296,0.294 0.296,0.296 0,17.756 11.541,-17.162 c -0.346,-0.594 -4.092,-2.96 -11.244,-7.103 l 0,0 -0.297,0 0,5.919 z m 5.326,18.051 c 0.986,0 1.58,-0.299 1.778,-0.891 l 0,0 0,-0.294 -0.296,0 -1.482,1.185 z m 10.063,-1.48 0,0.589 0.594,0.592 0.296,0 0.587,-0.592 c 0,-0.589 0.299,-0.885 0.89,-0.885 l 0,0 0,-0.296 -0.295,-0.297 c -1.38,0.146 -2.072,0.442 -2.072,0.889 m 2.96,0.886 0.294,0 0,-0.591 -0.294,0 0,0.591 z m -14.204,0 0.59,0 0,-0.297 -0.59,0 0,0.297 z m -9.472,-0.591 0.595,0.591 1.183,-0.591 -0.889,-0.887 -1.184,0 c 0,0.592 -0.194,0.887 -0.593,0.887 l 0,0 0.593,0.591 0,-0.591 0.295,0 z m 14.206,-0.295 0,-0.592 -0.593,0 0.593,0.592 z m -11.542,-0.592 0.593,0.592 0.593,0 0,-0.889 -0.89,0 -0.296,0.297 z m -6.51,0 0,0.296 0.888,0 0,-1.183 -0.592,-0.594 -0.296,1.481 z m 28.408,0 0.295,0 0,-0.592 -0.295,0 0,0.592 z m -12.131,-0.297 0.296,0 0,-0.59 -0.296,0 0,0.59 z m -8.285,0 0.293,0 0,-0.59 -0.293,0 0,0.59 z m -4.441,-0.888 0,0.298 0.592,0.59 0.592,-0.59 0,-0.893 -0.592,0 -0.592,0.595 z m -2.367,0.888 0.592,0 0,-0.59 -0.592,0 0,0.59 z m 6.808,-1.184 0,0.296 0.592,0 0.293,-0.296 0,-0.299 -0.293,-0.292 -0.592,0.591 z m 8.285,0 0.589,-0.591 -0.589,0 0,0.591 z m 7.102,-1.776 0,0.296 0.293,0.297 c 0.593,0 0.89,0.195 0.89,0.592 l 0,0 0.594,-0.592 c -0.497,0 -0.791,-0.396 -0.891,-1.185 l 0,0 -0.886,0.592 z m -26.043,1.185 0.593,0 -0.593,-0.592 0,0.592 z m 23.378,-1.481 0.296,0 1.482,1.186 0,-0.297 0.292,-0.297 0,-0.888 -2.07,-0.293 0,0.589 z m 5.92,0.592 0.591,0 0,-0.591 -0.591,0 0,0.591 z m -11.246,0 0.297,0 0.592,-0.592 0,-0.296 -0.889,0 0,0.888 z m 15.385,-1.181 0,0.293 0.89,0 0,-0.885 -0.297,0 -0.593,0.592 z m -2.661,-0.592 0,0.293 0.888,0 0,-0.887 -0.297,0 -0.591,0.594 z m -5.917,0.293 0.297,0 0.588,-0.591 -0.885,0 0,0.591 z m -23.081,-0.293 2.366,0 0,-0.889 -1.48,-0.296 -0.886,0 0,1.185 z m 30.774,-0.594 0,0.296 0.297,0 0.588,-0.591 0,-0.296 -0.292,0 -0.593,0.591 z m -1.776,-1.184 0.591,-0.591 0,-0.297 -0.591,0 0,0.888 z m -7.398,0 0.592,0 0.297,-0.297 -0.593,-0.591 -0.296,0.888 z m -4.437,0 0.887,0 0,-0.591 -0.887,0 0,0.591 z m -16.571,-0.591 0.59,0 0,-0.297 -0.59,0 0,0.297 z m 26.928,-1.774 0.887,0 0,-0.594 -0.887,0 0,0.594 z m -32.258,-1.185 0,0.296 0.891,0.295 c 0.788,-0.295 1.184,-0.591 1.184,-0.888 l 0,0 -0.888,-0.889 -1.187,1.186 z m 0.891,-5.03 0.592,0.59 0.296,0 0.296,-0.293 -0.296,-0.89 -0.888,0 0,0.593 z m 12.132,-0.297 0.592,0 0,-0.59 -0.592,0 0,0.59 z m -13.615,-1.183 0.592,0 0,-0.891 -0.592,0 0,0.891 z m 13.912,-1.183 0.888,0 0,-0.593 -0.3,0 -0.588,0.593 z m -11.245,0 0.296,0 0,-0.593 -0.296,0 0,0.593 z m 14.5,-3.552 0.591,0 0,-0.297 -0.591,0 0,0.297 z m -3.848,-0.591 0.593,0.591 0.888,0 0,-0.297 -0.592,-0.592 -0.593,0 -0.296,0.298 z m -11.54,0 0.592,0 0,-0.594 -0.592,0 0,0.594 z m 0,-4.439 0.592,0 -0.592,-0.592 0,0.592 z m -1.187,-0.887 0.301,0 0,-0.887 -0.301,0 0,0.887 z m 15.39,-1.188 0.296,0 0,-0.587 -0.889,0 0.593,0.587 z m -15.982,-0.295 0,0.295 0.592,0 0.593,-0.587 0,-0.297 -0.593,0 -0.592,0.589 z m 15.982,-0.885 0.593,-0.594 -0.593,0 0,0.594 z m 1.776,-1.478 0.591,0 0,-1.19 0.887,0.596 0,-0.887 -0.591,0 0,-0.594 0.296,-0.293 -0.592,0 -0.295,0.293 0,0.297 0.295,0.297 -0.591,0.887 -0.887,-0.596 -0.593,0 0,0.596 0.593,0 0.296,-0.295 c 0,0.588 0.195,0.889 0.591,0.889 m -12.428,-4.145 0.592,0 -0.592,-0.592 0,0.592 z m 14.794,-0.296 0.591,0 0.592,-0.593 0,-0.592 -1.183,0.592 0,-0.294 -0.296,0 0.296,0.887 z m 2.958,-0.593 0.593,0 0,-0.592 -0.593,0.592 z m 2.071,-0.592 0.297,0 0.592,-0.59 0,-0.299 -0.889,0 0,0.889 z m 4.442,-0.889 0.59,0 0,-0.292 -0.59,0 0,0.292 z m -26.338,0 0.592,0 -0.592,-0.589 0,0.589 z m 28.702,-0.292 0.296,0 0,-0.594 -0.296,0 0,0.594 z m -7.396,-0.297 0,0.297 0.887,0 0,-0.89 -0.297,0 -0.59,0.593 z m 4.733,-1.185 0.592,0 0,-0.592 -0.592,0.592 z m -3.846,-0.296 0.888,0 0,-0.589 -0.296,0 -0.592,0.589 z m -15.683,-3.254 0.295,0 0,-0.591 -0.295,0 0,0.591 z m 0.295,-1.185 0.595,0.594 0,-0.888 -0.298,0 -0.297,0.294 z m 0.297,-0.888 0.888,0.297 0,-0.591 -0.59,-0.589 -0.298,0 0,0.883 z m 2.367,-1.771 0.296,0.295 0.593,-0.594 -0.889,0 0,0.299 z m 13.316,0 0.296,0 -1.185,-0.892 0.889,0.892 z m -13.316,-1.78 0,0.598 0.296,0.29 -0.296,0.297 c 1.677,0 2.663,-0.496 2.96,-1.482 l 0,0 -2.96,0.297 z m 8.878,-0.589 0.593,0 0,-0.298 -0.593,0 0,0.298 z m 1.478,-1.778 0.298,0 0,-0.59 -0.887,-0.297 -0.296,0 0.885,0.887 z m 206.199,59.189 -10.912,-5.454 c -3.424,-0.382 -3.551,-4.316 -3.551,-5.835 l 0,0 0.378,-27.412 c 0,-3.167 -0.378,-5.201 -1.271,-6.215 l 0,0 c -0.885,-1.014 -1.648,-1.52 -2.281,-1.52 l 0,0 c -0.506,0 -0.763,-0.254 -0.763,-0.891 l 0,0 c 0,-0.89 0.385,-1.523 1.017,-1.649 l 0,0 c 0.635,-0.126 1.266,-0.254 1.905,-0.254 l 0,0 2.026,0 c 5.587,0 8.631,-1.646 11.419,-3.297 l 0,0 c 2.798,-1.649 4.828,-3.175 6.093,-4.442 l 0,0 c 1.267,-1.269 2.156,-1.904 2.79,-1.904 l 0,0 c 0.389,0 0.888,0.13 1.269,0.512 l 0,0 c 6.475,6.086 8.375,7.226 13.575,10.144 l 0,0 c 2.666,1.527 4.068,2.663 4.068,3.683 l 0,0 0,34.637 c 0,2.158 -1.146,3.3 -2.415,3.554 l 0,0 c -10.404,1.65 -17.383,6.216 -19.412,7.361 l 0,0 c -0.385,0.252 -0.887,0.377 -1.396,0.377 l 0,0 c -0.638,0 -1.016,-0.634 -2.539,-1.395 m 4.441,-48.089 -3.933,2.414 c -0.885,0.507 -1.522,1.522 -1.522,2.663 l 0,0 0.506,33.371 c 0,1.776 1.399,3.17 3.172,3.17 l 0,0 c 0.638,0 1.143,-0.126 1.654,-0.378 l 0,0 3.927,-2.413 c 0.889,-0.508 1.525,-1.521 1.525,-2.662 l 0,0 -0.507,-33.372 c 0,-1.78 -1.397,-3.173 -3.173,-3.173 l 0,0 c -0.634,0 -1.139,0.122 -1.649,0.38 m -261.498,46.762 -2.195,-9.346 -1.719,-7.325 -2.296,-9.789 -0.831,-3.531 c 0.075,-0.182 0.166,-0.369 0.276,-0.559 l 0,0 0.005,-0.008 c 0.335,-0.595 0.851,-1.236 1.591,-1.904 l 0,0 c 0.011,-0.01 0.02,-0.019 0.028,-0.025 l 0,0 c 0.175,-0.162 0.369,-0.321 0.569,-0.479 l 0,0 c 0.02,-0.015 0.037,-0.033 0.055,-0.045 l 0,0 c 0.204,-0.159 0.419,-0.321 0.646,-0.478 l 0,0 c 0.024,-0.017 0.049,-0.033 0.072,-0.049 l 0,0 c 0.233,-0.162 0.477,-0.323 0.736,-0.485 l 0,0 c 0.024,-0.014 0.049,-0.031 0.072,-0.045 l 0,0 c 0.268,-0.164 0.549,-0.334 0.849,-0.499 l 0,0 c 0.012,-0.007 0.022,-0.01 0.033,-0.018 l 0,0 c 0.616,-0.341 1.301,-0.685 2.058,-1.027 l 0,0 c 0.032,-0.017 0.06,-0.029 0.093,-0.045 l 0,0 c 0.357,-0.159 0.733,-0.319 1.12,-0.479 l 0,0 c 0.058,-0.022 0.115,-0.045 0.17,-0.069 l 0,0 c 0.382,-0.154 0.783,-0.309 1.198,-0.462 l 0,0 c 0.07,-0.025 0.141,-0.052 0.213,-0.078 l 0,0 c 0.417,-0.154 0.848,-0.303 1.298,-0.456 l 0,0 c 0.077,-0.025 0.158,-0.051 0.24,-0.075 l 0,0 c 0.456,-0.153 0.926,-0.302 1.418,-0.452 l 0,0 c 0.079,-0.021 0.158,-0.045 0.238,-0.069 l 0,0 c 0.492,-0.148 1.001,-0.292 1.531,-0.439 l 0,0 c 0.068,-0.019 0.14,-0.035 0.21,-0.056 l 0,0 c 0.503,-0.136 1.025,-0.269 1.558,-0.404 l 0,0 c 0.132,-0.031 0.26,-0.062 0.393,-0.097 l 0,0 c 0.1,-0.025 0.205,-0.049 0.308,-0.075 l 0,0 c 0.173,-0.042 0.343,-0.081 0.521,-0.124 l 0,0 c 0.126,-0.028 0.254,-0.058 0.382,-0.087 l 0,0 c 0.239,-0.057 0.48,-0.11 0.723,-0.165 l 0,0 c 0.215,-0.046 0.434,-0.095 0.653,-0.14 l 0,0 c 0.191,-0.043 0.38,-0.086 0.573,-0.125 l 0,0 c 0.42,-0.086 0.845,-0.176 1.283,-0.261 l 0,0 c 0.049,0.054 0.101,0.106 0.15,0.159 l 0,0 c 0.002,0 0.004,-0.003 0.004,-0.004 l 0,0 0.021,5.986 0.076,20.237 0.018,4.754 0.006,1.814 c -1.889,2.55 -7.855,4.702 -13.524,8.021 l 0,0 c -0.16,0.093 -0.318,0.184 -0.477,0.278 l 0,0 -0.346,-1.475 z m 47.9,-30.339 -0.888,-0.889 c 0.986,0.15 1.479,0.445 1.479,0.889 l 0,0 -0.591,0 z m 1.48,-6.215 0,-0.594 0.297,0 0.592,0.594 -0.889,0 z m -63.392,-23.138 c -2.113,-8.688 -0.467,-10.099 3.995,-8.457 l 0,0 c 4.928,1.882 20.662,7.988 22.307,7.988 l 0,0 c 1.644,0 1.878,3.988 1.878,5.634 l 0,0 0.038,10.224 c -0.829,0.219 -1.657,0.432 -2.493,0.658 l 0,0 -0.03,-0.018 c -0.035,0.019 -0.072,0.035 -0.107,0.05 l 0,0 c -0.036,0.012 -0.073,0.02 -0.108,0.03 l 0,0 c 0.002,0.006 0.002,0.015 0.003,0.019 l 0,0 c -4.154,1.89 -14.387,3.023 -20.063,6.957 l 0,0 -5.42,-23.085 z m 63.985,21.957 0.592,0 0,0.29 -0.592,0 0,-0.29 z m 129.879,-1.758 0,-0.297 0.601,0.601 0,0.301 -0.601,-0.605 z m -107.094,-2.092 0.293,0 0,0.592 -0.293,0 0,-0.592 z m -16.571,-0.592 0.589,0 -0.589,0.592 0,-0.592 z m -3.551,0 0,-0.296 0.59,0.593 0,0.295 -0.59,-0.592 z m 4.14,-0.296 -0.292,-0.296 0.588,-0.591 0.299,0 0,0.591 -0.299,0.296 -0.296,0 z m 0.595,-1.185 0.59,0 0,0.298 -0.59,0 0,-0.298 z m 122.782,-0.349 0.6,0 0,0.302 -0.6,0 0,-0.302 z m -106.213,-0.54 0.299,0 0,0.593 -0.299,0 0,-0.593 z m -3.845,0 0.59,0 0,0.3 -0.59,0 0,-0.3 z m 142.847,-0.365 0.599,-0.601 -0.3,-1.202 0,-0.296 1.806,0.897 0,0.3 -0.296,1.506 -1.809,-0.604 z m -149.062,-2.294 0.593,-0.593 0,0.593 -0.593,0 z m 2.663,-0.889 0,-0.592 0.889,0 -0.593,0.592 -0.296,0 z m 3.552,-1.185 0.591,0 0,0.593 -0.591,-0.593 z m -2.663,0.593 0,-0.593 0.889,0 -0.596,0.593 -0.293,0 z m -7.401,-1.775 0.595,-0.594 0,0.594 -0.595,0 z m 101.471,-3.178 0.598,0 -0.598,0.604 0,-0.604 z m -91.11,0.514 0,-0.294 0.59,-0.89 0.297,0.296 0.293,0 0.298,-0.296 0,0.296 -1.184,0.888 -0.294,0 z m -8.878,0 0,-0.294 c 0.59,0 0.886,-0.2 0.886,-0.594 l 0,0 0.592,0.594 -0.888,0.294 -0.59,0 z m 102.091,-0.853 0.604,0 0,0.599 -0.604,0 0,-0.599 z m -99.132,-0.035 0.591,-0.593 0.294,0 -0.593,0.593 -0.292,0 z m 98.533,-0.524 c 0,-0.405 0.599,-0.803 1.802,-1.205 l 0,0 0,0.3 c 0,0.402 -0.603,0.799 -1.802,1.21 l 0,0 0,-0.305 z m -93.8,-0.359 0.593,0 0,0.291 -0.593,0 0,-0.291 z m 6.215,-0.598 0.293,0 0,0.598 -0.293,0 0,-0.598 z m -5.029,0.301 0.589,0 0,0.297 -0.589,0 0,-0.297 z m -7.4,0.297 0.296,-0.895 0.592,0 0,0.895 -0.888,0 z m -2.071,-0.598 0.593,-0.589 0.294,0 -0.294,1.187 -0.593,-0.598 z m 4.437,-0.297 0.595,0 -0.595,0.598 0,-0.598 z m -5.327,-0.292 0,-0.297 0.595,0 0,0.886 -0.595,-0.589 z m 14.797,-0.297 0.296,0 0,0.589 -0.296,0 0,-0.589 z m -7.989,0.589 0.593,-0.589 0,0.589 -0.593,0 z m -0.886,-0.589 0.294,-0.296 0.592,0.593 -0.886,0.292 0,-0.589 z m -2.961,0 0,-0.296 0.888,-0.296 0,0.592 -0.888,0 z m -1.478,0 0,-0.592 -1.483,0.296 0,-0.296 0.595,-0.593 1.182,0 0,1.185 -0.294,0 z m 102.695,-0.864 -0.301,-0.303 0,-0.299 0.301,0 0.599,0.602 -0.599,0.146 0,-0.146 z m 0.599,0 0.925,-0.233 c -0.008,0.074 -0.024,0.143 -0.024,0.233 l 0,0 -0.901,0 z m -105.66,-0.321 0.588,0 0,0.301 -0.588,0 0,-0.301 z m 107.166,-0.585 0.296,0 0,0.304 -0.596,0 0.238,0.239 -0.519,0.13 c 0.049,-0.437 0.234,-0.673 0.581,-0.673 m -109.83,-0.301 0.588,0 0,0.59 -0.588,0 0,-0.59 z m 108.324,0.002 0.602,0 0,0.3 -0.602,0 0,-0.3 z m -0.9,-0.305 0.6,0 0,0.304 -0.6,0 0,-0.304 z m -87.598,-0.288 0.589,0 0,0.293 -0.589,0 0,-0.293 z m -3.258,0 c -0.59,0 -0.886,-0.199 -0.886,-0.593 l 0,0 1.184,0.294 0,0.299 -0.298,0 z m -4.143,0 0,-0.889 0.594,0 -0.297,0.889 -0.297,0 z m -3.845,-0.889 1.479,-0.887 0,0.887 -1.479,0.59 0,-0.59 z m 10.651,-0.592 0.887,0 0,0.295 -0.292,0.297 -0.595,-0.592 z m -37.282,0.295 -0.298,-0.295 1.184,0.295 -0.886,0 z m 28.999,-0.885 -0.297,0 -0.296,0.295 0,-0.592 0.296,-0.298 c 0.987,0.149 1.479,0.445 1.479,0.89 l 0,0 -1.182,-0.295 z m -26.337,-0.297 0.593,0 -0.593,0.592 0,-0.592 z m 36.989,-0.298 0.296,0 0,0.595 -0.296,0 0,-0.595 z m -6.805,0.298 0,-1.481 0.293,0 0.298,0.297 -0.298,1.184 -0.293,0 z m 6.805,-0.888 0.591,0 0,0.297 -0.591,0 0,-0.297 z m -11.541,-0.593 0.592,0 -0.592,0.593 0,-0.593 z m 10.355,-1.773 0.592,0 0,0.292 -0.592,0.596 0,-0.888 z m -2.07,0.292 0.296,-0.885 0.887,0 -0.887,0.885 -0.296,0 z m -10.948,-1.477 0,-0.297 0.885,-0.296 0.593,0.593 -1.478,0 z m -3.849,-1.182 0.89,-0.889 0,1.185 -0.89,0.293 0,-0.589 z m 1.187,-1.777 0.59,0 0,0.293 -0.59,0 0,-0.293 z"
               style="fill:url(#linearGradient36);stroke:none"
               id="path42" />
          </g>
        </g>
      </g>
    </g>
    <g
       transform="matrix(1.25,0,0,-1.25,-164.93929,1726.1743)"
       id="g44">
      <g
         id="g46"
         clip-path="url(#clipPath48)">
        <g
           id="g52"
           transform="translate(282.1318,978.7822)">
          <path
             inkscape:connector-curvature="0"
             d="M 0,0 C 0.005,0.001 0.008,0.003 0.013,0.005 0.038,0.013 0.062,0.021 0.085,0.028 0.058,0.021 0.028,0.011 0,0"
             style="fill:#373535;fill-opacity:1;fill-rule:nonzero;stroke:none"
             id="path54" />
        </g>
        <g
           id="g56"
           transform="translate(286.8213,950.7793)">
          <path
             inkscape:connector-curvature="0"
             d="M 0,0 C 0.174,-0.037 0.349,-0.078 0.527,-0.113 0.349,-0.078 0.174,-0.037 0,0"
             style="fill:#ee3338;fill-opacity:1;fill-rule:nonzero;stroke:none"
             id="path58" />
        </g>
        <g
           id="g60"
           transform="translate(284.2046,951.3779)">
          <path
             inkscape:connector-curvature="0"
             d="M 0,0 C 0.264,-0.065 0.529,-0.128 0.8,-0.192 0.529,-0.128 0.264,-0.065 0,0"
             style="fill:#ee3338;fill-opacity:1;fill-rule:nonzero;stroke:none"
             id="path62" />
        </g>
        <g
           id="g64"
           transform="translate(285.416,951.0918)">
          <path
             inkscape:connector-curvature="0"
             d="M 0,0 C 0.239,-0.057 0.479,-0.109 0.723,-0.164 0.479,-0.109 0.239,-0.057 0,0"
             style="fill:#ee3338;fill-opacity:1;fill-rule:nonzero;stroke:none"
             id="path66" />
        </g>
        <g
           id="g68"
           transform="translate(285.0044,951.1855)">
          <path
             inkscape:connector-curvature="0"
             d="M 0,0 C 0.136,-0.031 0.274,-0.062 0.412,-0.094 0.274,-0.062 0.136,-0.031 0,0"
             style="fill:#00b0f0;fill-opacity:1;fill-rule:nonzero;stroke:none"
             id="path70" />
        </g>
        <g
           id="g72"
           transform="translate(287.3486,950.666)">
          <path
             inkscape:connector-curvature="0"
             d="M 0,0 C 0.424,-0.09 0.856,-0.176 1.299,-0.265 0.856,-0.176 0.424,-0.09 0,0"
             style="fill:#00b0f0;fill-opacity:1;fill-rule:nonzero;stroke:none"
             id="path74" />
        </g>
        <g
           id="g76"
           transform="translate(286.1387,950.9277)">
          <path
             inkscape:connector-curvature="0"
             d="M 0,0 C 0.224,-0.049 0.455,-0.1 0.683,-0.148 0.455,-0.1 0.226,-0.049 0,0"
             style="fill:#00b0f0;fill-opacity:1;fill-rule:nonzero;stroke:none"
             id="path78" />
        </g>
        <g
           id="g80"
           transform="translate(267.5347,960.1807)">
          <path
             inkscape:connector-curvature="0"
             d="M 0,0 C 0.075,-0.183 0.166,-0.369 0.276,-0.56 0.166,-0.369 0.075,-0.183 0,0"
             style="fill:#ee3338;fill-opacity:1;fill-rule:nonzero;stroke:none"
             id="path82" />
        </g>
        <g
           id="g84"
           transform="translate(269.4067,957.709)">
          <path
             inkscape:connector-curvature="0"
             d="M 0,0 C 0.011,-0.01 0.02,-0.019 0.028,-0.025 0.02,-0.019 0.011,-0.01 0,0"
             style="fill:#00b0f0;fill-opacity:1;fill-rule:nonzero;stroke:none"
             id="path86" />
        </g>
        <g
           id="g88"
           transform="translate(272.4341,955.6035)">
          <path
             inkscape:connector-curvature="0"
             d="M 0,0 C 0.012,-0.006 0.022,-0.01 0.033,-0.018 0.022,-0.01 0.012,-0.006 0,0"
             style="fill:#00b0f0;fill-opacity:1;fill-rule:nonzero;stroke:none"
             id="path90" />
        </g>
        <g
           id="g92"
           transform="translate(270.0044,957.2051)">
          <path
             inkscape:connector-curvature="0"
             d="M 0,0 C 0.02,-0.016 0.037,-0.032 0.055,-0.045 0.037,-0.032 0.02,-0.016 0,0"
             style="fill:#00b0f0;fill-opacity:1;fill-rule:nonzero;stroke:none"
             id="path94" />
        </g>
        <g
           id="g96"
           transform="translate(270.7046,956.6816)">
          <path
             inkscape:connector-curvature="0"
             d="M 0,0 C 0.024,-0.017 0.049,-0.033 0.072,-0.049 0.049,-0.033 0.024,-0.017 0,0"
             style="fill:#00b0f0;fill-opacity:1;fill-rule:nonzero;stroke:none"
             id="path98" />
        </g>
        <g
           id="g100"
           transform="translate(271.5127,956.1484)">
          <path
             inkscape:connector-curvature="0"
             d="M 0,0 C 0.025,-0.015 0.049,-0.031 0.072,-0.045 0.049,-0.031 0.025,-0.015 0,0"
             style="fill:#00b0f0;fill-opacity:1;fill-rule:nonzero;stroke:none"
             id="path102" />
        </g>
        <g
           id="g104"
           transform="translate(275.7388,954.0352)">
          <path
             inkscape:connector-curvature="0"
             d="M 0,0 C 0.057,-0.022 0.114,-0.045 0.17,-0.069 0.114,-0.045 0.057,-0.022 0,0"
             style="fill:#00b0f0;fill-opacity:1;fill-rule:nonzero;stroke:none"
             id="path106" />
        </g>
        <g
           id="g108"
           transform="translate(282.0435,951.9355)">
          <path
             inkscape:connector-curvature="0"
             d="M 0,0 C 0.069,-0.02 0.141,-0.035 0.211,-0.057 0.141,-0.035 0.069,-0.02 0,0"
             style="fill:#00b0f0;fill-opacity:1;fill-rule:nonzero;stroke:none"
             id="path110" />
        </g>
        <g
           id="g112"
           transform="translate(280.2749,952.4434)">
          <path
             inkscape:connector-curvature="0"
             d="M 0,0 C 0.08,-0.021 0.158,-0.045 0.238,-0.069 0.158,-0.045 0.08,-0.021 0,0"
             style="fill:#00b0f0;fill-opacity:1;fill-rule:nonzero;stroke:none"
             id="path114" />
        </g>
        <g
           id="g116"
           transform="translate(267.8154,959.6133)">
          <path
             inkscape:connector-curvature="0"
             d="m 0,0 c 0,0 -0.002,0.003 -0.004,0.008 l 0,-0.005 C -0.002,0.003 0,0 0,0"
             style="fill:#00b0f0;fill-opacity:1;fill-rule:nonzero;stroke:none"
             id="path118" />
        </g>
        <g
           id="g120"
           transform="translate(286.1387,950.9277)">
          <path
             inkscape:connector-curvature="0"
             d="M 0,0 C -0.243,0.055 -0.483,0.107 -0.723,0.164 -0.85,0.193 -0.979,0.223 -1.104,0.252 -0.538,0.117 0.051,-0.014 0.653,-0.141 0.435,-0.096 0.215,-0.047 0,0"
             style="fill:#00b0f0;fill-opacity:1;fill-rule:nonzero;stroke:none"
             id="path122" />
        </g>
        <g
           id="g124"
           transform="translate(287.3643,950.6621)">
          <path
             inkscape:connector-curvature="0"
             d="M 0,0 C 0.42,-0.086 0.845,-0.173 1.284,-0.261 0.845,-0.176 0.42,-0.086 0,0"
             style="fill:#00b0f0;fill-opacity:1;fill-rule:nonzero;stroke:none"
             id="path126" />
        </g>
        <g
           id="g128"
           transform="translate(268.3652,963.7109)">
          <path
             inkscape:connector-curvature="0"
             d="M 0,0 2.297,9.789 0.273,1.17 0,0 z"
             style="fill:#00b0f0;fill-opacity:1;fill-rule:nonzero;stroke:none"
             id="path130" />
        </g>
        <g
           id="g132"
           transform="translate(284.5132,951.3027)">
          <path
             inkscape:connector-curvature="0"
             d="M 0,0 C -0.104,0.026 -0.208,0.051 -0.309,0.075 -0.441,0.11 -0.569,0.142 -0.701,0.173 -0.62,0.152 -0.544,0.131 -0.461,0.11 -0.311,0.072 -0.153,0.036 0,0"
             style="fill:#00b0f0;fill-opacity:1;fill-rule:nonzero;stroke:none"
             id="path134" />
        </g>
        <g
           id="g136"
           transform="translate(274.5254,954.5586)">
          <path
             inkscape:connector-curvature="0"
             d="M 0,0 C 0.032,-0.017 0.061,-0.028 0.093,-0.045 0.061,-0.028 0.032,-0.017 0,0"
             style="fill:#00b0f0;fill-opacity:1;fill-rule:nonzero;stroke:none"
             id="path138" />
        </g>
        <g
           id="g140"
           transform="translate(277.1064,953.5039)">
          <path
             inkscape:connector-curvature="0"
             d="M 0,0 C 0.069,-0.025 0.14,-0.052 0.212,-0.078 0.14,-0.052 0.069,-0.025 0,0"
             style="fill:#00b0f0;fill-opacity:1;fill-rule:nonzero;stroke:none"
             id="path142" />
        </g>
        <g
           id="g144"
           transform="translate(278.6167,952.9707)">
          <path
             inkscape:connector-curvature="0"
             d="M 0,0 C 0.077,-0.025 0.158,-0.052 0.24,-0.076 0.158,-0.052 0.077,-0.025 0,0"
             style="fill:#00b0f0;fill-opacity:1;fill-rule:nonzero;stroke:none"
             id="path146" />
        </g>
      </g>
    </g>
    <g
       transform="matrix(1.25,0,0,-1.25,-164.93929,1726.1743)"
       id="g148">
      <g
         id="g150">
        <g
           id="g156">
          <g
             id="g158">
            <path
               inkscape:connector-curvature="0"
               d="m 296.78,1072.324 c -1.049,-2.397 -4.605,-2.678 -6.427,-0.91 l 0,0 c -1.273,-3.305 -4.177,-3.034 -5.74,-2.602 l 0,0 c -0.528,-3.751 -3.992,-4.823 -5.09,-4.225 l 0,0 c 0.851,-3.42 -1.122,-5.125 -3.012,-6.114 l 0,0 c 2.053,-2.929 -0.285,-6.225 -0.687,-6.732 l 0,0 c 1.291,-0.908 2.034,-4.155 0.942,-6.035 l 0,0 c 1.65,-1.392 2.247,-3.495 1.392,-5.349 l 0,0 c -0.205,-0.445 -0.678,0.202 -0.79,0.375 l 0,0 c -1.981,3.047 -2.867,2.63 -4.215,0.183 l 0,0 c -1.513,-2.752 -2.048,-1.253 -2.257,0.245 l 0,0 c -0.134,0.96 -0.134,1.92 -0.172,1.762 l 0,0 c -1.375,-5.601 -2.369,-15.018 0.301,-18.155 l 0,0 c 0.412,-0.489 1.247,-0.903 1.762,-0.349 l 0,0 c 1.576,1.679 1.819,6.72 5.016,5.401 l 0,0 c -0.419,-0.985 0.38,-1.101 0.846,-2.114 l 0,0 c 0.156,-0.341 -1.08,-0.367 -1.4,-0.271 l 0,0 c -0.041,-0.238 -0.174,-0.674 -0.08,-0.468 l 0,0 c -0.117,-4.869 -6.776,-22.115 -8.864,-21.935 l 0,0 c 1.15,-1.79 -0.848,-4.763 -2.869,-4.47 l 0,0 c 1.195,-2.756 -0.881,-5.256 -2.371,-5.822 l 0,0 c 0.322,-0.896 0.361,-4.209 -2.606,-5.307 l 0,0 c 0.477,-0.799 0.727,-3.763 -1.946,-5.517 l 0,0 c 1.037,-1.475 0.295,-3.674 -0.947,-4.92 l 0,0 c 1.394,-0.83 1.789,-3.303 0.309,-4.768 l 0,0 c 1.72,-0.64 1.658,-3.423 0.912,-4.72 l 0,0 c 1.494,-0.562 2.467,-2.628 1.905,-4.127 l 0,0 c 1.007,-0.283 1.76,-0.868 2.272,-1.644 l 0,0 c 0.351,0.963 0.824,1.981 1.465,3.068 l 0,0 c 0.401,0.688 0.841,1.332 1.306,1.946 l 0,0 c -1.387,3.194 -0.569,7.039 0.58,10.114 l 0,0 c 1.391,3.708 4.727,7.035 5.563,7.925 l 0,0 c 0.804,0.854 2.03,2.506 3.496,4.621 l 0,0 0.363,1.545 c 0.164,-0.098 0.334,-0.195 0.498,-0.29 l 0,0 c 2.662,3.905 5.949,9 9.013,13.676 l 0,0 c 3.571,5.455 6.838,10.339 8.437,12.08 l 0,0 c -0.081,-1.054 0.617,-2.091 1.516,-2.582 l 0,0 c 0.747,2.822 2.852,6.377 6.1,5.94 l 0,0 c -0.544,2.021 -0.039,4.787 1.595,6.367 l 0,0 c 0.317,0.307 0.673,0.573 1.075,0.775 l 0,0 c -1.801,1.605 -3.353,5.133 -0.661,7.77 l 0,0 c -3.249,1.059 -4.213,4.911 -3.118,6.595 l 0,0 c -3.061,0.524 -5.187,2.716 -4.715,5.641 l 0,0 c -3.818,-0.044 -4.118,4.332 -3.76,5.284 l 0,0 c 0.161,0.43 0.678,0.987 1.274,0.919 l 0,0 c 0.867,-0.169 1.733,-1.578 1.378,-2.531 l 0,0 c 5.271,-0.42 12.525,-5.15 16.507,-8.189 l 0,0 c 0.494,-0.34 0.592,-1.288 0.967,-1.911 l 0,0 c 0.155,-0.268 0.784,-0.523 1.088,-0.408 l 0,0 c 1.924,0.729 3.954,3.173 4.116,3.605 l 0,0 c 0.065,0.18 -1.213,1.462 -1.512,1.287 l 0,0 c -0.28,-0.162 -0.782,-0.405 -1.071,-0.374 l 0,0 c -0.893,0.102 -3.008,1.553 -4.398,2.755 l 0,0 c -1.677,1.457 -0.412,2.767 -0.277,2.716 l 0,0 c -1.174,0.802 -1.941,3.528 -1.871,5.222 l 0,0 c 0.085,2.168 1.987,4.275 3.896,4.62 l 0,0 c -0.905,0.546 -1.42,0.764 -1.993,1.235 l 0,0 c -1.57,-0.806 -2.372,-2.68 -2.862,-3.918 l 0,0 c -0.617,4.909 -2.135,9.356 -5.297,13.277 l 0,0 c 0.459,-4.263 -4.512,-1.957 -4.882,-0.192 m 6.205,-15.891 c 0,0.904 0.733,1.638 1.636,1.638 l 0,0 c 0.906,0 1.638,-0.734 1.638,-1.638 l 0,0 c 0,-0.903 -0.732,-1.637 -1.638,-1.637 l 0,0 c -0.903,0 -1.636,0.734 -1.636,1.637 m -25.816,-28.939 c -0.013,-0.024 0.022,-0.044 0.08,-0.06 l 0,0 c 0.015,0.083 0.018,0.142 -0.004,0.142 l 0,0 c -0.014,0 -0.038,-0.024 -0.076,-0.082 m -9.549,-64.761 c -0.37,-0.521 -0.542,-1.429 -0.085,-2.553 l 0,0 0.831,3.531 c -0.251,-0.321 -0.5,-0.64 -0.746,-0.978 m 21.182,-12.177 c 0.024,-0.106 0.082,-0.198 0.146,-0.285 l 0,0 c 0.297,-0.133 0.568,-0.271 0.815,-0.414 l 0,0 c 0.195,-0.008 0.383,0.033 0.52,0.155 l 0,0 c 0.149,-0.924 1.113,-1.235 1.602,-1.135 l 0,0 c 0.036,-0.168 0.237,-0.525 0.578,-0.761 l 0,0 c 1.486,3.07 -0.446,5.964 -3.64,8.426 l 0,0 -0.021,-5.986 z m -19.506,-5.421 c -1.982,-2.251 -1.329,-4.605 -1.416,-5.284 l 0,0 c -0.077,-0.571 -0.142,-0.861 -0.445,-1.083 l 0,0 c 0.807,-0.431 1.51,-1.377 1.298,-2.477 l 0,0 c 0.812,-0.061 1.609,-0.9 1.613,-1.598 l 0,0 c 1.177,0.109 1.987,-0.623 2.295,-1.195 l 0,0 c 0.848,0.229 1.713,0.045 2.384,-0.657 l 0,0 c 0.54,0.604 1.753,0.604 2.414,0.007 l 0,0 c 0.39,0.656 1.654,1.314 2.412,0.629 l 0,0 c 0.271,1.044 1.518,1.41 2.273,0.926 l 0,0 c 0.236,0.881 1.044,1.736 2.003,1.567 l 0,0 c 0.079,1.686 1.51,2.233 2.004,2.185 l 0,0 c -0.303,1.676 1.233,2.406 1.73,2.451 l 0,0 c -0.144,0.846 0.441,2.411 2.029,2.456 l 0,0 c -0.2,0.264 -0.26,0.593 -0.23,0.916 l 0,0 c 0.253,0.387 0.504,0.813 0.748,1.285 l 0,0 c 0.07,0.045 0.143,0.084 0.218,0.118 l 0,0 c -0.614,0.158 -1.23,0.324 -1.844,0.487 l 0,0 c -0.179,-0.605 -7.764,-5.769 -9.09,-7.274 l 0,0 c -1.786,-2.031 -4.745,-4.097 -8.252,-0.95 l 0,0 c -1.644,1.472 -1.591,4.35 -0.352,5.759 l 0,0 c 1.571,1.779 3.862,1.652 5.028,0.747 l 0,0 c 0.79,-0.606 1.34,-1.969 0.438,-2.99 l 0,0 c -1.127,-1.289 -2.049,-1.077 -3.08,-0.866 l 0,0 c -0.448,0.089 -0.577,-0.47 -0.165,-0.769 l 0,0 c 1.626,-1.168 3.822,-0.749 4.766,0.324 l 0,0 c 0.752,0.854 2.215,3.351 -0.595,5.876 l 0,0 c -1.099,0.986 -2.419,1.437 -3.726,1.437 l 0,0 c -1.67,0 -3.319,-0.735 -4.458,-2.027"
               style="fill:url(#linearGradient160);stroke:none"
               id="path166" />
          </g>
        </g>
      </g>
    </g>
    <g
       transform="matrix(1.25,0,0,-1.25,-164.93929,1726.1743)"
       id="g168">
      <g
         id="g170">
        <g
           id="g176">
          <g
             id="g178">
            <path
               inkscape:connector-curvature="0"
               d="m 254.362,1040.08 c -0.42,1.064 -1.108,2.672 -2.46,3.366 l 0,0 c -0.492,-0.406 -0.932,-0.592 -1.711,-1.061 l 0,0 c 1.644,-0.297 3.278,-2.107 3.351,-3.968 l 0,0 c 0.056,-1.457 -0.601,-3.798 -1.612,-4.487 l 0,0 c 0.069,0.024 0.445,-0.328 0.498,-0.863 l 0,0 c 0.038,-0.411 -0.109,-0.928 -0.735,-1.469 l 0,0 c -1.192,-1.033 -3.009,-2.282 -3.777,-2.371 l 0,0 c -0.248,-0.026 -0.68,0.185 -0.92,0.323 l 0,0 c -0.257,0.15 -1.355,-0.949 -1.297,-1.106 l 0,0 c 0.138,-0.37 1.879,-2.472 3.535,-3.097 l 0,0 c 0.261,-0.099 0.796,0.121 0.935,0.35 l 0,0 c 0.32,0.536 0.405,1.351 0.828,1.641 l 0,0 c 2.142,1.636 5.381,3.837 8.618,5.345 l 0,0 c 1.936,0.902 3.869,1.556 5.565,1.691 l 0,0 c -0.307,0.819 0.438,2.031 1.184,2.176 l 0,0 c 0.513,0.057 0.958,-0.42 1.093,-0.79 l 0,0 c 0.219,-0.585 0.145,-2.667 -1.107,-3.795 l 0,0 c -0.502,-0.452 -1.186,-0.756 -2.123,-0.744 l 0,0 c 0.405,-2.513 -1.42,-4.397 -4.051,-4.847 l 0,0 c 0.94,-1.446 0.113,-4.757 -2.681,-5.664 l 0,0 c 2.314,-2.266 0.983,-5.299 -0.568,-6.678 l 0,0 c 0.549,-0.272 0.999,-0.674 1.363,-1.154 l 0,0 c 1.053,-1.39 1.349,-3.441 0.934,-4.983 l 0,0 c 2.79,0.378 4.599,-2.677 5.242,-5.103 l 0,0 c 1.754,-5.006 5.971,-8.458 10.456,-11.146 l 0,0 c 5.806,-3.48 12.06,-5.678 14.001,-8.299 l 0,0 c 0.108,-0.142 0.204,-0.287 0.283,-0.434 l 0,0 c 0.285,-0.522 0.152,-0.968 -0.289,-1.38 l 0,0 -0.018,-4.754 c 5.09,1.998 8.732,4.016 8.732,9.682 l 0,0 c 0,5.175 -4.125,9.759 -8.601,13.731 l 0,0 c -4.235,3.757 -8.781,6.965 -10.449,9.597 l 0,0 c -1.902,0.137 -4.024,2.76 -2.03,4.42 l 0,0 c 3.172,2.637 5.673,-2.449 7.17,-4.047 l 0,0 c 0.443,-0.473 1.158,-0.117 1.512,0.299 l 0,0 c 2.055,2.411 3.581,14.274 -0.892,18.375 l 0,0 c -0.533,0.489 -1.15,0.876 -1.863,1.115 l 0,0 c -0.326,0.109 -0.946,-0.115 -1.169,-0.498 l 0,0 c -0.013,-0.02 -0.028,-0.038 -0.038,-0.059 l 0,0 c -0.994,-2.184 0.216,-2.594 -1.485,-5.215 l 0,0 c -0.096,-0.147 -0.503,-0.704 -0.68,-0.321 l 0,0 c -0.733,1.592 -0.221,3.398 1.197,4.595 l 0,0 c -0.217,0.376 -0.347,0.816 -0.409,1.279 l 0,0 c -0.202,1.528 0.368,3.307 1.219,3.905 l 0,0 c -0.346,0.436 -2.353,3.268 -0.593,5.786 l 0,0 c -1.623,0.848 -3.317,2.312 -2.586,5.252 l 0,0 c -0.941,-0.515 -3.92,0.407 -4.372,3.628 l 0,0 c -1.343,-0.368 -3.839,-0.601 -4.933,2.236 l 0,0 c -1.566,-1.517 -4.619,-1.279 -5.523,0.783 l 0,0 c -0.317,-1.517 -4.589,-3.498 -4.193,0.166 l 0,0 c -2.715,-3.371 -4.02,-7.188 -4.551,-11.408 m 0.275,-2.461 c 0,0.862 0.7,1.562 1.563,1.562 l 0,0 c 0.861,0 1.564,-0.7 1.564,-1.562 l 0,0 c 0,-0.864 -0.703,-1.565 -1.564,-1.565 l 0,0 c -0.863,0 -1.563,0.701 -1.563,1.565"
               style="fill:url(#linearGradient180);stroke:none"
               id="path186" />
          </g>
        </g>
      </g>
    </g>
    <g
       transform="matrix(1.25,0,0,-1.25,-164.93929,1726.1743)"
       id="g188">
      <g
         id="g190">
        <g
           id="g196">
          <g
             id="g198">
            <path
               inkscape:connector-curvature="0"
               d="m 265.369,968.527 c -0.444,-0.59 -0.863,-1.203 -1.249,-1.86 l 0,0 c -0.61,-1.038 -1.062,-2.013 -1.397,-2.931 l 0,0 c -1.734,-4.747 0.009,-7.923 3.261,-10.172 l 0,0 c 5.676,-3.934 15.909,-5.067 20.063,-6.957 l 0,0 c -0.001,-0.004 -0.001,-0.013 -0.003,-0.019 l 0,0 c 0.035,-0.01 0.072,-0.018 0.108,-0.03 l 0,0 c 0.035,-0.015 0.072,-0.031 0.107,-0.05 l 0,0 0.03,0.018 c 0.836,-0.226 1.664,-0.439 2.493,-0.658 l 0,0 c 0.614,-0.163 1.23,-0.329 1.844,-0.487 l 0,0 c 0.09,-0.026 0.178,-0.049 0.271,-0.073 l 0,0 c 0.366,-0.094 1.802,-0.412 2.788,-1.154 l 0,0 c 1.332,-1.003 2.769,-2.687 1.182,-4.793 l 0,0 c -0.743,-0.988 -2.44,-1.014 -3.362,-0.318 l 0,0 c -1.167,0.881 -1.266,2.22 -0.821,2.919 l 0,0 c 0.298,0.471 1.056,0.82 1.726,0.315 l 0,0 c 0.841,-0.636 0.788,-1.176 0.742,-1.78 l 0,0 c -0.018,-0.265 0.322,-0.329 0.468,-0.081 l 0,0 c 0.562,0.97 0.15,2.24 -0.552,2.77 l 0,0 c -0.56,0.422 -2.138,1.228 -3.413,-0.463 l 0,0 c -1.132,-1.499 -0.544,-3.619 0.966,-4.759 l 0,0 c 1.131,-0.855 2.183,-0.801 2.792,-0.747 l 0,0 c 0.185,0.016 0.329,0.032 0.423,0.024 l 0,0 c 0.344,-0.032 0.519,-0.066 0.671,-0.238 l 0,0 c 0.194,0.481 0.697,0.908 1.36,0.807 l 0,0 c -0.027,0.472 0.408,0.954 0.819,0.969 l 0,0 c -0.151,0.685 0.219,1.174 0.531,1.362 l 0,0 c -0.199,0.489 -0.157,0.998 0.207,1.406 l 0,0 c -0.398,0.299 -0.49,1.006 -0.186,1.406 l 0,0 c -0.419,0.213 -0.899,0.937 -0.552,1.393 l 0,0 c -0.637,0.137 -0.946,0.855 -0.72,1.308 l 0,0 c -0.532,0.12 -1.099,0.575 -1.071,1.137 l 0,0 c -0.999,0.014 -1.428,0.834 -1.437,1.126 l 0,0 c -0.411,-0.089 -0.739,0.021 -0.995,0.199 l 0,0 c -0.341,0.236 -0.542,0.593 -0.578,0.761 l 0,0 c -0.489,-0.1 -1.453,0.211 -1.602,1.135 l 0,0 c -0.137,-0.122 -0.325,-0.163 -0.52,-0.155 l 0,0 c -0.247,0.143 -0.518,0.281 -0.815,0.414 l 0,0 c -0.064,0.087 -0.122,0.179 -0.146,0.285 l 0,0 c 0,10e-4 -0.002,0.004 -0.004,0.004 l 0,0 c -0.049,-0.053 -0.101,-0.105 -0.15,-0.159 l 0,0 c -0.438,0.088 -0.863,0.175 -1.283,0.261 l 0,0 c -0.004,0.004 -0.012,0.004 -0.017,0.004 l 0,0 c -0.178,0.035 -0.353,0.076 -0.527,0.113 l 0,0 c -0.009,0.004 -0.02,0.004 -0.029,0.008 l 0,0 c -0.603,0.127 -1.191,0.258 -1.758,0.392 l 0,0 c -0.009,10e-4 -0.019,0.007 -0.029,0.007 l 0,0 c -0.168,0.04 -0.33,0.078 -0.492,0.117 l 0,0 c -0.153,0.036 -0.311,0.072 -0.46,0.11 l 0,0 c -0.084,0.02 -0.16,0.042 -0.241,0.062 l 0,0 c -0.533,0.135 -1.055,0.268 -1.558,0.404 l 0,0 c -0.07,0.021 -0.142,0.037 -0.21,0.056 l 0,0 c -0.53,0.147 -1.039,0.291 -1.531,0.439 l 0,0 c -0.08,0.024 -0.159,0.048 -0.238,0.069 l 0,0 c -0.492,0.15 -0.962,0.299 -1.418,0.452 l 0,0 c -0.082,0.024 -0.163,0.05 -0.24,0.075 l 0,0 c -0.45,0.153 -0.881,0.302 -1.298,0.456 l 0,0 c -0.072,0.026 -0.143,0.053 -0.213,0.078 l 0,0 c -0.415,0.153 -0.816,0.308 -1.198,0.462 l 0,0 c -0.055,0.024 -0.112,0.047 -0.17,0.069 l 0,0 c -0.387,0.16 -0.763,0.32 -1.12,0.479 l 0,0 c -0.033,0.016 -0.061,0.028 -0.093,0.045 l 0,0 c -0.757,0.342 -1.442,0.686 -2.058,1.027 l 0,0 c -0.011,0.008 -0.021,0.011 -0.033,0.018 l 0,0 c -0.3,0.165 -0.581,0.335 -0.849,0.499 l 0,0 c -0.023,0.014 -0.048,0.031 -0.072,0.045 l 0,0 c -0.259,0.162 -0.503,0.323 -0.736,0.485 l 0,0 c -0.023,0.016 -0.048,0.032 -0.072,0.049 l 0,0 c -0.227,0.157 -0.442,0.319 -0.646,0.478 l 0,0 c -0.018,0.012 -0.035,0.03 -0.055,0.045 l 0,0 c -0.202,0.158 -0.394,0.317 -0.569,0.479 l 0,0 c -0.008,0.006 -0.017,0.015 -0.028,0.025 l 0,0 c -0.741,0.668 -1.256,1.309 -1.591,1.904 l 0,0 -0.003,0.003 c 0,0 -0.002,0.003 -0.002,0.005 l 0,0 c -0.11,0.19 -0.201,0.377 -0.276,0.559 l 0,0 c -0.457,1.124 -0.285,2.032 0.085,2.553 l 0,0 c 0.246,0.338 0.495,0.657 0.746,0.978 l 0,0 0.272,1.17 2.024,8.619 c -1.963,-1.349 -3.785,-2.976 -5.293,-4.973"
               style="fill:url(#linearGradient200);stroke:none"
               id="path206" />
          </g>
        </g>
      </g>
    </g>
  </g>
</svg>
